<?xml version="1.0" encoding="UTF-8"?>
<svg version="1.1" xmlns="http://www.w3.org/2000/svg" width="111" height="111">
<path d="M0 0 C0 0.66 0 1.32 0 2 C0.61875 2.226875 1.2375 2.45375 1.875 2.6875 C4.6219805 4.38416443 4.86635273 6.05251711 6 9 C7.485 9.495 7.485 9.495 9 10 C10.53515625 12.1875 10.53515625 12.1875 12.0625 15 C12.56910156 15.9075 13.07570313 16.815 13.59765625 17.75 C18.90262458 30.0445227 18.90598375 46.66440049 15.11328125 59.390625 C13.09894985 64.1119351 10.20859132 68.02475411 7 72 C6.54109375 72.598125 6.0821875 73.19625 5.609375 73.8125 C-1.9027297 83.3214933 -13.00589985 89.09589128 -24.69921875 91.4921875 C-26.95248725 91.77312437 -26.95248725 91.77312437 -28 93 C-30.55443814 93.12801963 -33.06994129 93.18522276 -35.625 93.1875 C-36.32496094 93.19974609 -37.02492187 93.21199219 -37.74609375 93.22460938 C-44.63246649 93.24377368 -50.51425204 91.25398073 -56.9375 88.875 C-57.89527344 88.52179688 -58.85304687 88.16859375 -59.83984375 87.8046875 C-60.55269531 87.53914063 -61.26554687 87.27359375 -62 87 C-62 86.34 -62 85.68 -62 85 C-62.928125 84.71125 -63.85625 84.4225 -64.8125 84.125 C-68 83 -68 83 -71 81 C-71 80.34 -71 79.68 -71 79 C-71.61875 78.7525 -72.2375 78.505 -72.875 78.25 C-75.38710296 76.77229238 -75.76107344 75.56044823 -77 73 C-77.99 72.67 -78.98 72.34 -80 72 C-88.55564572 60.48660205 -92.50182855 47.26737125 -91 33 C-90.39821256 30.97953067 -89.73297854 28.97666054 -89 27 C-88.72800781 26.12859375 -88.45601563 25.2571875 -88.17578125 24.359375 C-84.52125179 13.31310497 -77.83649611 3.70958621 -68.1875 -2.9375 C-66 -4 -66 -4 -64 -4 C-64 -4.66 -64 -5.32 -64 -6 C-63.00097656 -6.34933594 -62.00195312 -6.69867188 -60.97265625 -7.05859375 C-59.66921795 -7.51807919 -58.3658354 -7.97772279 -57.0625 -8.4375 C-56.0734668 -8.78264648 -56.0734668 -8.78264648 -55.06445312 -9.13476562 C-51.77671378 -10.11964592 -51.77671378 -10.11964592 -49 -12 C-30.9461988 -15.22389307 -14.51509109 -11.34348654 0 0 Z " fill="#EEE2E4" transform="translate(93,16)"/>
<path d="M0 0 C2.1953125 1.2890625 2.1953125 1.2890625 3.1953125 3.2890625 C0.80967173 2.71321818 -1.47151534 2.06678655 -3.8046875 1.2890625 C-4.1346875 3.2690625 -4.4646875 5.2490625 -4.8046875 7.2890625 C-3.8146875 7.2890625 -2.8246875 7.2890625 -1.8046875 7.2890625 C-1.8046875 7.9490625 -1.8046875 8.6090625 -1.8046875 9.2890625 C1.82325248 7.42339762 1.82325248 7.42339762 4.1953125 4.2890625 C10.37744459 5.27658032 13.29986733 10.67334816 16.7578125 15.4453125 C21.4298293 23.1966131 20.84857059 31.54473639 20.1953125 40.2890625 C19.8653125 41.2790625 19.5353125 42.2690625 19.1953125 43.2890625 C18.5353125 43.2890625 17.8753125 43.2890625 17.1953125 43.2890625 C17.0921875 44.2171875 16.9890625 45.1453125 16.8828125 46.1015625 C16.1882933 49.32160608 15.71790311 50.31486115 13.1953125 52.2890625 C13.1953125 50.9690625 13.1953125 49.6490625 13.1953125 48.2890625 C10.21608247 48.26178572 7.23710871 48.24209122 4.2578125 48.2265625 C3.42701172 48.21818359 2.59621094 48.20980469 1.74023438 48.20117188 C-3.85695191 48.17939294 -9.25202332 48.57746982 -14.8046875 49.2890625 C-15.1346875 50.6090625 -15.4646875 51.9290625 -15.8046875 53.2890625 C-2.4396875 53.7840625 -2.4396875 53.7840625 11.1953125 54.2890625 C9.15221982 58.37524785 8.07396209 59.41799142 4.4453125 61.9140625 C3.18460938 62.79964844 3.18460938 62.79964844 1.8984375 63.703125 C-4.20460922 67.28381426 -9.7090064 67.65374408 -16.6171875 67.6640625 C-17.89432617 67.70080078 -17.89432617 67.70080078 -19.19726562 67.73828125 C-28.16289036 67.77925136 -34.78071555 64.818276 -41.3671875 58.7265625 C-42.63755859 57.57994141 -42.63755859 57.57994141 -43.93359375 56.41015625 C-45.8046875 54.2890625 -45.8046875 54.2890625 -45.8046875 51.2890625 C-46.4646875 51.2890625 -47.1246875 51.2890625 -47.8046875 51.2890625 C-48.4646875 49.9690625 -49.1246875 48.6490625 -49.8046875 47.2890625 C-50.7946875 49.7640625 -50.7946875 49.7640625 -51.8046875 52.2890625 C-55.2696875 52.7840625 -55.2696875 52.7840625 -58.8046875 53.2890625 C-59.1346875 51.3090625 -59.4646875 49.3290625 -59.8046875 47.2890625 C-54.1796875 45.2890625 -54.1796875 45.2890625 -50.8046875 45.2890625 C-51.1346875 44.3815625 -51.4646875 43.4740625 -51.8046875 42.5390625 C-54.45327875 33.00029547 -53.2626458 23.0656679 -48.8046875 14.2890625 C-37.19894551 -2.84754091 -18.83284447 -8.58777708 0 0 Z " fill="#CC8693" transform="translate(72.8046875,23.7109375)"/>
<path d="M0 0 C0 0.66 0 1.32 0 2 C0.61875 2.226875 1.2375 2.45375 1.875 2.6875 C4.6219805 4.38416443 4.86635273 6.05251711 6 9 C7.485 9.495 7.485 9.495 9 10 C10.53515625 12.1875 10.53515625 12.1875 12.0625 15 C12.56910156 15.9075 13.07570313 16.815 13.59765625 17.75 C18.90262458 30.0445227 18.90598375 46.66440049 15.11328125 59.390625 C13.09894985 64.1119351 10.20859132 68.02475411 7 72 C6.54109375 72.598125 6.0821875 73.19625 5.609375 73.8125 C-1.9027297 83.3214933 -13.00589985 89.09589128 -24.69921875 91.4921875 C-26.95248725 91.77312437 -26.95248725 91.77312437 -28 93 C-30.55443814 93.12801963 -33.06994129 93.18522276 -35.625 93.1875 C-36.32496094 93.19974609 -37.02492187 93.21199219 -37.74609375 93.22460938 C-44.63246649 93.24377368 -50.51425204 91.25398073 -56.9375 88.875 C-57.89527344 88.52179688 -58.85304687 88.16859375 -59.83984375 87.8046875 C-60.55269531 87.53914063 -61.26554687 87.27359375 -62 87 C-62 86.34 -62 85.68 -62 85 C-62.928125 84.71125 -63.85625 84.4225 -64.8125 84.125 C-68 83 -68 83 -71 81 C-71 80.34 -71 79.68 -71 79 C-71.61875 78.7525 -72.2375 78.505 -72.875 78.25 C-75.38710296 76.77229238 -75.76107344 75.56044823 -77 73 C-77.99 72.67 -78.98 72.34 -80 72 C-88.55564572 60.48660205 -92.50182855 47.26737125 -91 33 C-90.39821256 30.97953067 -89.73297854 28.97666054 -89 27 C-88.72800781 26.12859375 -88.45601563 25.2571875 -88.17578125 24.359375 C-84.52125179 13.31310497 -77.83649611 3.70958621 -68.1875 -2.9375 C-66 -4 -66 -4 -64 -4 C-64 -4.66 -64 -5.32 -64 -6 C-63.00097656 -6.34933594 -62.00195312 -6.69867188 -60.97265625 -7.05859375 C-59.66921795 -7.51807919 -58.3658354 -7.97772279 -57.0625 -8.4375 C-56.0734668 -8.78264648 -56.0734668 -8.78264648 -55.06445312 -9.13476562 C-51.77671378 -10.11964592 -51.77671378 -10.11964592 -49 -12 C-30.9461988 -15.22389307 -14.51509109 -11.34348654 0 0 Z M-31 -8 C-32.49821059 -4.62902617 -33 -2.79557881 -33 1 C-33.75023437 0.97679687 -34.50046875 0.95359375 -35.2734375 0.9296875 C-45.05975155 0.75713284 -55.42238638 0.86688327 -63 8 C-63 8.99 -63 9.98 -63 11 C-63.639375 11.103125 -64.27875 11.20625 -64.9375 11.3125 C-65.618125 11.539375 -66.29875 11.76625 -67 12 C-67.33 12.99 -67.66 13.98 -68 15 C-68.63421875 15.60585938 -69.2684375 16.21171875 -69.921875 16.8359375 C-72.31432567 19.3273241 -73.14504644 21.37152562 -74.25 24.625 C-74.75273438 26.06746094 -74.75273438 26.06746094 -75.265625 27.5390625 C-76.09531738 29.89138556 -76.09531738 29.89138556 -76 32 C-77.485 32.495 -77.485 32.495 -79 33 C-78.34 35.31 -77.68 37.62 -77 40 C-79.31 40 -81.62 40 -84 40 C-82.125 33.25 -82.125 33.25 -81 31 C-81.66 31 -82.32 31 -83 31 C-82.34 27.7 -81.68 24.4 -81 21 C-79.35 21.33 -77.7 21.66 -76 22 C-76 21.34 -76 20.68 -76 20 C-76.99 20 -77.98 20 -79 20 C-78.40844669 18.68176698 -77.80128537 17.37052949 -77.1875 16.0625 C-76.85105469 15.33160156 -76.51460937 14.60070312 -76.16796875 13.84765625 C-75 12 -75 12 -72 11 C-69.8125 11.4375 -69.8125 11.4375 -68 12 C-68.33 10.68 -68.66 9.36 -69 8 C-69.66 8 -70.32 8 -71 8 C-71.33 7.34 -71.66 6.68 -72 6 C-79.22747223 9.76275616 -83.18724083 17.05468349 -85.9375 24.5625 C-88.97232951 36.49317349 -88.11992514 50.85663351 -83 62 C-75.34437849 74.75701397 -64.66958526 83.80315607 -50.47998047 88.38256836 C-46.24248821 89.43756126 -42.09831753 89.48794545 -37.75 89.4375 C-36.83049561 89.42992676 -35.91099121 89.42235352 -34.96362305 89.41455078 C-19.29420534 89.03750499 -7.01554401 82.98029184 3.73828125 71.703125 C13.1163735 60.49476604 15.61326062 48.28670117 15 34 C14.01 34 13.02 34 12 34 C12 36.31 12 38.62 12 41 C9.36 41 6.72 41 4 41 C4.01160156 40.41992188 4.02320312 39.83984375 4.03515625 39.2421875 C4.08762174 34.7001754 3.91751063 30.47286431 3 26 C2.34 26 1.68 26 1 26 C1 25.01 1 24.02 1 23 C0.34 23 -0.32 23 -1 23 C-1 21.68 -1 20.36 -1 19 C-1.66 19 -2.32 19 -3 19 C-3.103125 18.236875 -3.20625 17.47375 -3.3125 16.6875 C-4.04711194 13.81583516 -4.6716065 12.76957906 -7 11 C-7.66 11 -8.32 11 -9 11 C-9 9.68 -9 8.36 -9 7 C-11.76886123 5.99422987 -14.53984104 4.99519853 -17.3125 4 C-18.09818359 3.71382812 -18.88386719 3.42765625 -19.69335938 3.1328125 C-20.45068359 2.86210937 -21.20800781 2.59140625 -21.98828125 2.3125 C-22.68477783 2.06113281 -23.38127441 1.80976563 -24.09887695 1.55078125 C-26.150368 0.86086464 -26.150368 0.86086464 -29 1 C-28.67 0.401875 -28.34 -0.19625 -28 -0.8125 C-26.79212012 -3.05386471 -26.79212012 -3.05386471 -27 -6 C-26.01 -5.67 -25.02 -5.34 -24 -5 C-23.505 -2.525 -23.505 -2.525 -23 0 C-22.67 -1.32 -22.34 -2.64 -22 -4 C-17.545 -3.01 -17.545 -3.01 -13 -2 C-13.33 -0.68 -13.66 0.64 -14 2 C-12.02 2 -10.04 2 -8 2 C-7.505 2.99 -7.505 2.99 -7 4 C-5.35636866 4.72159424 -3.68949614 5.39351421 -2 6 C-2 5.01 -2 4.02 -2 3 C-8.79728492 -3.38532826 -18.11154694 -8.1708022 -27.5625 -8.1875 C-28.696875 -8.125625 -29.83125 -8.06375 -31 -8 Z " fill="#D49AA6" transform="translate(93,16)"/>
<path d="M0 0 C1.35015859 4.05047576 0.62084998 6.7920168 0 11 C0.66 11 1.32 11 2 11 C1.67 14.3 1.34 17.6 1 21 C8.20229934 22.47739474 15.04507109 23.19349953 22.375 23.1875 C23.13538574 23.18814453 23.89577148 23.18878906 24.67919922 23.18945312 C28.89980543 23.14859357 32.83443914 22.73304563 37 22 C38.79067806 21.93694796 40.58337579 21.91328886 42.375 21.9375 C43.68597656 21.95103516 43.68597656 21.95103516 45.0234375 21.96484375 C45.67570312 21.97644531 46.32796875 21.98804687 47 22 C47 20.35 47 18.7 47 17 C50.3 17.99 53.6 18.98 57 20 C54.8515625 27.71484375 54.8515625 27.71484375 54 30 C53.34 30.33 52.68 30.66 52 31 C52 29.68 52 28.36 52 27 C49.02076997 26.97272322 46.04179621 26.95302872 43.0625 26.9375 C41.81629883 26.92493164 41.81629883 26.92493164 40.54492188 26.91210938 C34.94773559 26.89033044 29.55266418 27.28840732 24 28 C23.67 29.32 23.34 30.64 23 32 C36.365 32.495 36.365 32.495 50 33 C47.95690732 37.08618535 46.87864959 38.12892892 43.25 40.625 C42.40953125 41.21539062 41.5690625 41.80578125 40.703125 42.4140625 C34.60007828 45.99475176 29.0956811 46.36468158 22.1875 46.375 C20.91036133 46.41173828 20.91036133 46.41173828 19.60742188 46.44921875 C10.64179714 46.49018886 4.02397195 43.5292135 -2.5625 37.4375 C-3.83287109 36.29087891 -3.83287109 36.29087891 -5.12890625 35.12109375 C-7 33 -7 33 -7 30 C-7.66 30 -8.32 30 -9 30 C-9.66 28.68 -10.32 27.36 -11 26 C-11.99 28.475 -11.99 28.475 -13 31 C-15.31 31.33 -17.62 31.66 -20 32 C-20.33 30.02 -20.66 28.04 -21 26 C-15.375 24 -15.375 24 -12 24 C-12 22.02 -12 20.04 -12 18 C-11.28972656 17.75765625 -10.57945313 17.5153125 -9.84765625 17.265625 C-8.92855469 16.93046875 -8.00945313 16.5953125 -7.0625 16.25 C-6.14597656 15.92515625 -5.22945312 15.6003125 -4.28515625 15.265625 C-1.8211165 14.22179047 -1.8211165 14.22179047 -1.18359375 11.859375 C-1.09271484 10.93898438 -1.09271484 10.93898438 -1 10 C-1.99 9.67 -2.98 9.34 -4 9 C-3.01 9 -2.02 9 -1 9 C-1.33 6.36 -1.66 3.72 -2 1 C-1.34 0.67 -0.68 0.34 0 0 Z " fill="#9C0624" transform="translate(34,45)"/>
<path d="M0 0 C1.98 0.66 3.96 1.32 6 2 C5.38722388 4.96175123 4.74627478 6.38058783 3 9 C1.35 8.67 -0.3 8.34 -2 8 C-1.505 8.433125 -1.01 8.86625 -0.5 9.3125 C1 11 1 11 1 14 C0.34 14 -0.32 14 -1 14 C-1.33 15.65 -1.66 17.3 -2 19 C-5.3 18.67 -8.6 18.34 -12 18 C-12 17.34 -12 16.68 -12 16 C-12.99 16 -13.98 16 -15 16 C-14.505 17.85625 -14.505 17.85625 -14 19.75 C-13.20108841 22.74591845 -13 24.80107719 -13 28 C-15.31 28 -17.62 28 -20 28 C-20.495 29.485 -20.495 29.485 -21 31 C-21.66 31 -22.32 31 -23 31 C-23 30.34 -23 29.68 -23 29 C-23.66 29 -24.32 29 -25 29 C-25 29.99 -25 30.98 -25 32 C-25.99 32 -26.98 32 -28 32 C-28 30.68 -28 29.36 -28 28 C-28.66 28 -29.32 28 -30 28 C-29.505 30.475 -29.505 30.475 -29 33 C-31.43757413 33.02698422 -33.87484915 33.04683099 -36.3125 33.0625 C-37.00279297 33.07087891 -37.69308594 33.07925781 -38.40429688 33.08789062 C-41.5483025 33.10307906 -43.99420019 33.00193327 -47 32 C-48.99961564 31.96079185 -51.00049364 31.95556653 -53 32 C-53.66 29.03 -54.32 26.06 -55 23 C-60.55053286 23.74359673 -60.55053286 23.74359673 -66 25 C-66 24.01 -66 23.02 -66 22 C-66.99 21.67 -67.98 21.34 -69 21 C-68.67 20.01 -68.34 19.02 -68 18 C-69.32 18.33 -70.64 18.66 -72 19 C-72 17.68 -72 16.36 -72 15 C-73.65 15 -75.3 15 -77 15 C-77 13.02 -77 11.04 -77 9 C-77.99 8.67 -78.98 8.34 -80 8 C-79.05125 7.773125 -78.1025 7.54625 -77.125 7.3125 C-73.80676612 6.30916286 -73.80676612 6.30916286 -72.625 3.375 C-72.41875 2.59125 -72.2125 1.8075 -72 1 C-70.5 2.375 -70.5 2.375 -69 4 C-69 4.66 -69 5.32 -69 6 C-68.34 6 -67.68 6 -67 6 C-66.34451172 7.10794922 -66.34451172 7.10794922 -65.67578125 8.23828125 C-63.83332991 11.27467542 -61.95926776 12.98626508 -59.1875 15.1875 C-58.35605469 15.86167969 -57.52460937 16.53585938 -56.66796875 17.23046875 C-50.73546252 21.16520568 -45.08879347 21.36469187 -38.1875 21.375 C-36.91036133 21.41173828 -36.91036133 21.41173828 -35.60742188 21.44921875 C-27.46318844 21.48643535 -20.91715892 18.89826784 -14.5 13.875 C-13.8503125 13.37742187 -13.200625 12.87984375 -12.53125 12.3671875 C-10.87501104 11.05780177 -10.87501104 11.05780177 -10 9 C-11.01368652 9.00785522 -11.01368652 9.00785522 -12.04785156 9.01586914 C-15.11522489 9.03668007 -18.18258333 9.04967329 -21.25 9.0625 C-22.84521484 9.07506836 -22.84521484 9.07506836 -24.47265625 9.08789062 C-25.49746094 9.09111328 -26.52226563 9.09433594 -27.578125 9.09765625 C-28.52075195 9.10289307 -29.46337891 9.10812988 -30.43457031 9.11352539 C-32.78123437 9.00968082 -34.75644478 8.66706529 -37 8 C-36.67 6.68 -36.34 5.36 -36 4 C-29.45346697 2.17310658 -23.69058741 1.85109873 -16.9375 2.375 C-16.07189453 2.43171875 -15.20628906 2.4884375 -14.31445312 2.546875 C-12.2088455 2.6864733 -10.10427604 2.84159061 -8 3 C-7.37890625 5.29296875 -7.37890625 5.29296875 -7 8 C-8.9375 11.3125 -8.9375 11.3125 -11 14 C-9.06890419 14.04289755 -9.06890419 14.04289755 -7 13 C-5.93097061 10.69747517 -4.92824183 8.3627974 -4 6 C-3.34 5.67 -2.68 5.34 -2 5 C-1.27840576 3.35636866 -0.60648579 1.68949614 0 0 Z " fill="#E7D4D8" transform="translate(94,69)"/>
<path d="M0 0 C3.15964514 2.33813741 6.17202625 4.719645 9.125 7.3125 C9.455 6.3225 9.785 5.3325 10.125 4.3125 C12.6875 3.125 12.6875 3.125 15.125 2.3125 C15.62 4.2925 15.62 4.2925 16.125 6.3125 C17.115 6.3125 18.105 6.3125 19.125 6.3125 C19.125 7.3025 19.125 8.2925 19.125 9.3125 C16.815 9.9725 14.505 10.6325 12.125 11.3125 C12.125 10.3225 12.125 9.3325 12.125 8.3125 C11.135 8.3125 10.145 8.3125 9.125 8.3125 C9.62 9.116875 10.115 9.92125 10.625 10.75 C12.47027349 15.13252454 12.40561086 18.63565231 12.125 23.3125 C9.485 22.9825 6.845 22.6525 4.125 22.3125 C4.125 24.9525 4.125 27.5925 4.125 30.3125 C3.09375 30.580625 2.0625 30.84875 1 31.125 C-1.64370501 31.86054696 -3.53361256 32.66815078 -6 34 C-9.38011442 35.54309571 -10.41134119 35.49521276 -13.875 34.3125 C-16.20833333 33.3125 -18.54166667 32.3125 -20.875 31.3125 C-23.65388613 30.62109478 -23.65388613 30.62109478 -25.875 30.3125 C-25.38 25.8575 -25.38 25.8575 -24.875 21.3125 C-24.215 21.3125 -23.555 21.3125 -22.875 21.3125 C-22.875 21.9725 -22.875 22.6325 -22.875 23.3125 C-21.555 22.9825 -20.235 22.6525 -18.875 22.3125 C-19.535 21.6525 -20.195 20.9925 -20.875 20.3125 C-19.225 19.6525 -17.575 18.9925 -15.875 18.3125 C-15.648125 19.09625 -15.42125 19.88 -15.1875 20.6875 C-14.09375 23.53125 -14.09375 23.53125 -11.25 24.625 C-10.46625 24.851875 -9.6825 25.07875 -8.875 25.3125 C-8.545 23.3325 -8.215 21.3525 -7.875 19.3125 C-3.915 18.8175 -3.915 18.8175 0.125 18.3125 C0.125 16.9925 0.125 15.6725 0.125 14.3125 C1.115 14.3125 2.105 14.3125 3.125 14.3125 C3.125 13.3225 3.125 12.3325 3.125 11.3125 C0.815 11.3125 -1.495 11.3125 -3.875 11.3125 C-3.875 9.0025 -3.875 6.6925 -3.875 4.3125 C-4.57367188 4.25191406 -5.27234375 4.19132812 -5.9921875 4.12890625 C-6.90226562 4.04511719 -7.81234375 3.96132813 -8.75 3.875 C-9.65492187 3.79378906 -10.55984375 3.71257813 -11.4921875 3.62890625 C-13.875 3.3125 -13.875 3.3125 -15.875 2.3125 C-15.875 2.9725 -15.875 3.6325 -15.875 4.3125 C-17.525 4.3125 -19.175 4.3125 -20.875 4.3125 C-21.205 6.6225 -21.535 8.9325 -21.875 11.3125 C-22.865 11.3125 -23.855 11.3125 -24.875 11.3125 C-24.875 12.3025 -24.875 13.2925 -24.875 14.3125 C-24.215 14.3125 -23.555 14.3125 -22.875 14.3125 C-23.875 17.3125 -23.875 17.3125 -25.875 18.3125 C-26.1225 18.9725 -26.37 19.6325 -26.625 20.3125 C-27.875 22.3125 -27.875 22.3125 -31 23.0625 C-32.423125 23.18625 -32.423125 23.18625 -33.875 23.3125 C-34.60029245 16.63980946 -32.48026509 11.9006609 -28.875 6.3125 C-22.08747743 -1.53790386 -9.47666454 -5.18057661 0 0 Z " fill="#F0EAEB" transform="translate(67.875,31.6875)"/>
<path d="M0 0 C3.96 0.33 7.92 0.66 12 1 C12.92538169 4.70152678 13.08174162 5.63458162 12 9 C14.31 9 16.62 9 19 9 C19 9.99 19 10.98 19 12 C18.01 12 17.02 12 16 12 C16 13.32 16 14.64 16 16 C13.29120665 17.35439668 10.99066732 17.06501451 8 17 C7.67 18.98 7.34 20.96 7 23 C4.6875 22.8125 4.6875 22.8125 2 22 C0.1875 19.4375 0.1875 19.4375 -1 17 C-1.66 17.66 -2.32 18.32 -3 19 C-2.01 19.66 -1.02 20.32 0 21 C-2.31 21 -4.62 21 -7 21 C-7 20.34 -7 19.68 -7 19 C-7.66 19 -8.32 19 -9 19 C-9.33 21.97 -9.66 24.94 -10 28 C-9.34 27.9175 -8.68 27.835 -8 27.75 C-4.93684816 28.00526265 -3.63384862 28.61089025 -1 30.0625 C2.12257612 31.71247497 2.12257612 31.71247497 5.625 31.9375 C8.14009147 30.99624015 8.14009147 30.99624015 10.9375 29.4375 C14.25460915 27.88048958 16.38526381 27.74180456 20 28 C20 25.36 20 22.72 20 20 C22.64 20.33 25.28 20.66 28 21 C28 19.35 28 17.7 28 16 C31.87684087 14.80712589 34.91621923 14 39 14 C39 15.32 39 16.64 39 18 C35.7 18 32.4 18 29 18 C30.00836062 19.23267348 30.00836062 19.23267348 32.06640625 19.09765625 C32.89011719 19.08605469 33.71382812 19.07445313 34.5625 19.0625 C35.38878906 19.05347656 36.21507812 19.04445313 37.06640625 19.03515625 C37.70449219 19.02355469 38.34257813 19.01195313 39 19 C39.495 21.475 39.495 21.475 40 24 C34.93437617 24.25328119 30.84241633 23.33583899 26 22 C26.495 23.0828125 26.495 23.0828125 27 24.1875 C28.01335535 27.03756191 28.08031402 29.01332251 28 32 C13.23098346 35.65957932 -2.08680838 36.81889206 -17 33 C-17.33 32.67 -17.66 32.34 -18 32 C-17.29411765 24.58823529 -17.29411765 24.58823529 -16 22 C-16.66 21.67 -17.32 21.34 -18 21 C-17.05125 20.7525 -16.1025 20.505 -15.125 20.25 C-11.94147968 19.33760907 -11.94147968 19.33760907 -10.8125 17.0625 C-10.544375 16.381875 -10.27625 15.70125 -10 15 C-8.375 13.25 -8.375 13.25 -7 12 C-7.66 12 -8.32 12 -9 12 C-9 11.01 -9 10.02 -9 9 C-8.01 9 -7.02 9 -6 9 C-5.67 6.69 -5.34 4.38 -5 2 C-3.35 2 -1.7 2 0 2 C0 1.34 0 0.68 0 0 Z " fill="#CE9EA6" transform="translate(52,34)"/>
<path d="M0 0 C-1.32 0.33 -2.64 0.66 -4 1 C-4.66 3.97 -5.32 6.94 -6 10 C-7.27875 10.09796875 -8.5575 10.1959375 -9.875 10.296875 C-11.58340844 10.44706475 -13.29173793 10.59815448 -15 10.75 C-15.83917969 10.811875 -16.67835937 10.87375 -17.54296875 10.9375 C-22.76124038 11.42292062 -26.73279006 12.48963782 -31.30859375 15.07128906 C-33 16 -33 16 -36 17 C-36 17.99 -36 18.98 -36 20 C-37.32 20.33 -38.64 20.66 -40 21 C-40.103125 21.598125 -40.20625 22.19625 -40.3125 22.8125 C-41 25 -41 25 -42.3828125 26.22265625 C-44.6693755 28.73566631 -45.43484881 31.43646906 -46.5625 34.625 C-48.78269618 40.89134809 -48.78269618 40.89134809 -51 42 C-50.67 42.33 -50.34 42.66 -50 43 C-49.95919217 44.99958364 -49.95745644 47.00045254 -50 49 C-52.31 49 -54.62 49 -57 49 C-57.125 46.125 -57.125 46.125 -57 43 C-56.34 42.34 -55.68 41.68 -55 41 C-55.33 40.67 -55.66 40.34 -56 40 C-55.29411765 32.58823529 -55.29411765 32.58823529 -54 30 C-52.35 30.33 -50.7 30.66 -49 31 C-49 30.34 -49 29.68 -49 29 C-49.99 29 -50.98 29 -52 29 C-51.49701212 24.59885603 -49.91227269 22.28804981 -47 19 C-45.02 19.66 -43.04 20.32 -41 21 C-41.75150023 17.72226496 -41.75150023 17.72226496 -45 16 C-45.99 16 -46.98 16 -48 16 C-33.33481283 2.02820229 -19.73503456 -0.59205104 0 0 Z " fill="#E6C9CE" transform="translate(66,7)"/>
<path d="M0 0 C0 0.66 0 1.32 0 2 C0.99 2.33 1.98 2.66 3 3 C3.6875 5.0625 3.6875 5.0625 4 7 C0.30002027 7 -0.14239038 6.23244436 -2.75 3.75 C-13.54864863 -5.95511459 -26.29720475 -8.94292524 -40.5625 -8.37890625 C-53.81446006 -7.467834 -65.3398433 -2.33934867 -74.375 7.4375 C-84.72715162 19.97016617 -87.41978868 31.94108688 -86 48 C-85.35235762 51.54256842 -84.56332792 54.94215197 -83.55859375 58.3984375 C-82.98712264 61.05997429 -83.09415813 62.46844192 -84 65 C-89.85191044 54.10333917 -93.74675854 42.29672123 -90.0859375 29.90625 C-89.72757812 28.9471875 -89.36921875 27.988125 -89 27 C-88.72800781 26.12859375 -88.45601563 25.2571875 -88.17578125 24.359375 C-84.52125179 13.31310497 -77.83649611 3.70958621 -68.1875 -2.9375 C-66 -4 -66 -4 -64 -4 C-64 -4.66 -64 -5.32 -64 -6 C-63.00097656 -6.34933594 -62.00195312 -6.69867188 -60.97265625 -7.05859375 C-59.66921795 -7.51807919 -58.3658354 -7.97772279 -57.0625 -8.4375 C-56.0734668 -8.78264648 -56.0734668 -8.78264648 -55.06445312 -9.13476562 C-51.77671378 -10.11964592 -51.77671378 -10.11964592 -49 -12 C-30.9461988 -15.22389307 -14.51509109 -11.34348654 0 0 Z " fill="#CF8A97" transform="translate(93,16)"/>
<path d="M0 0 C0.66 1.98 1.32 3.96 2 6 C1.01 6.33 0.02 6.66 -1 7 C-1.33 7.99 -1.66 8.98 -2 10 C-2.66 10 -3.32 10 -4 10 C-3.67 10.99 -3.34 11.98 -3 13 C-6.16521739 19.44347826 -6.16521739 19.44347826 -10 22 C-10.36498034 24.89608399 -10.36498034 24.89608399 -10.1875 28.125 C-10.16042969 29.22070312 -10.13335937 30.31640625 -10.10546875 31.4453125 C-10.07066406 32.28835937 -10.03585938 33.13140625 -10 34 C-16.5 38 -16.5 38 -21 38 C-21.33 38.66 -21.66 39.32 -22 40 C-24.60842243 32.17473271 -23.32636639 23.58259746 -20.5390625 15.97265625 C-16.36442337 7.90945733 -9.70554521 -0.53919696 0 0 Z " fill="#C97E8C" transform="translate(43,25)"/>
<path d="M0 0 C1.35015859 4.05047576 0.62084998 6.7920168 0 11 C0.66 11 1.32 11 2 11 C1.67 14.3 1.34 17.6 1 21 C10.405 22.485 10.405 22.485 20 24 C19.67 26.97 19.34 29.94 19 33 C16.69 33 14.38 33 12 33 C12 32.01 12 31.02 12 30 C11.34 30 10.68 30 10 30 C10 30.99 10 31.98 10 33 C2.08 33.495 2.08 33.495 -6 34 C-6.33 32.68 -6.66 31.36 -7 30 C-7.66 30 -8.32 30 -9 30 C-9.66 28.68 -10.32 27.36 -11 26 C-11.99 28.475 -11.99 28.475 -13 31 C-15.31 31.33 -17.62 31.66 -20 32 C-20.33 30.02 -20.66 28.04 -21 26 C-15.375 24 -15.375 24 -12 24 C-12 22.02 -12 20.04 -12 18 C-11.28972656 17.75765625 -10.57945313 17.5153125 -9.84765625 17.265625 C-8.92855469 16.93046875 -8.00945313 16.5953125 -7.0625 16.25 C-6.14597656 15.92515625 -5.22945312 15.6003125 -4.28515625 15.265625 C-1.8211165 14.22179047 -1.8211165 14.22179047 -1.18359375 11.859375 C-1.09271484 10.93898438 -1.09271484 10.93898438 -1 10 C-1.99 9.67 -2.98 9.34 -4 9 C-3.01 9 -2.02 9 -1 9 C-1.33 6.36 -1.66 3.72 -2 1 C-1.34 0.67 -0.68 0.34 0 0 Z " fill="#9D0C27" transform="translate(34,45)"/>
<path d="M0 0 C3.96 0.33 7.92 0.66 12 1 C12.92538169 4.70152678 13.08174162 5.63458162 12 9 C14.31 9 16.62 9 19 9 C19 9.99 19 10.98 19 12 C18.01 12 17.02 12 16 12 C16 13.32 16 14.64 16 16 C13.29120665 17.35439668 10.99066732 17.06501451 8 17 C7.67 18.98 7.34 20.96 7 23 C5.35 22.67 3.7 22.34 2 22 C1.34 20.02 0.68 18.04 0 16 C-2.97 16.33 -5.94 16.66 -9 17 C-8.34 15.35 -7.68 13.7 -7 12 C-7.66 12 -8.32 12 -9 12 C-9 11.01 -9 10.02 -9 9 C-8.01 9 -7.02 9 -6 9 C-5.67 6.69 -5.34 4.38 -5 2 C-3.35 2 -1.7 2 0 2 C0 1.34 0 0.68 0 0 Z " fill="#86212C" transform="translate(52,34)"/>
<path d="M0 0 C3.875 0.875 3.875 0.875 5 2 C7.33247761 2.33926947 9.66585471 2.67240066 12 3 C12.66 3.33 13.32 3.66 14 4 C14 4.99 14 5.98 14 7 C15.65 7 17.3 7 19 7 C19.33 7.99 19.66 8.98 20 10 C20.66 10.165 21.32 10.33 22 10.5 C22.66 10.665 23.32 10.83 24 11 C24.33 11.99 24.66 12.98 25 14 C25.66 14 26.32 14 27 14 C27 14.99 27 15.98 27 17 C27.99 17 28.98 17 30 17 C30 17.99 30 18.98 30 20 C30.66 20 31.32 20 32 20 C35 26.625 35 26.625 35 30 C32.03 30.495 32.03 30.495 29 31 C29.33 30.34 29.66 29.68 30 29 C30.66 29 31.32 29 32 29 C32 28.01 32 27.02 32 26 C30.35 26.33 28.7 26.66 27 27 C27.33 26.01 27.66 25.02 28 24 C28.66 24 29.32 24 30 24 C30 23.34 30 22.68 30 22 C29.01 22 28.02 22 27 22 C27 22.66 27 23.32 27 24 C23.29346269 22.76448756 22.35084565 21.03334922 20 18 C19.34 17.67 18.68 17.34 18 17 C18 15.68 18 14.36 18 13 C17.00419922 12.83177734 17.00419922 12.83177734 15.98828125 12.66015625 C12.29575765 11.84442228 8.76067852 10.65819352 5.1875 9.4375 C4.49462891 9.20353516 3.80175781 8.96957031 3.08789062 8.72851562 C1.39099886 8.15508324 -0.30463078 7.57791831 -2 7 C-1.34 4.69 -0.68 2.38 0 0 Z " fill="#BC586B" transform="translate(66,10)"/>
<path d="M0 0 C0.99 0 1.98 0 3 0 C3.33 0.66 3.66 1.32 4 2 C4.99 2.33 5.98 2.66 7 3 C7 3.99 7 4.98 7 6 C5.68 6.33 4.36 6.66 3 7 C2.896875 7.598125 2.79375 8.19625 2.6875 8.8125 C2 11 2 11 0.6171875 12.22265625 C-1.6693755 14.73566631 -2.43484881 17.43646906 -3.5625 20.625 C-5.78269618 26.89134809 -5.78269618 26.89134809 -8 28 C-7.67 28.33 -7.34 28.66 -7 29 C-6.95919217 30.99958364 -6.95745644 33.00045254 -7 35 C-9.31 35 -11.62 35 -14 35 C-14.125 32.125 -14.125 32.125 -14 29 C-13.34 28.34 -12.68 27.68 -12 27 C-12.33 26.67 -12.66 26.34 -13 26 C-12.29411765 18.58823529 -12.29411765 18.58823529 -11 16 C-9.35 16.33 -7.7 16.66 -6 17 C-6 16.34 -6 15.68 -6 15 C-6.99 15 -7.98 15 -9 15 C-8.49701212 10.59885603 -6.91227269 8.28804981 -4 5 C-2.02 5.66 -0.04 6.32 2 7 C1.67 6.401875 1.34 5.80375 1 5.1875 C0 3 0 3 0 0 Z " fill="#AA2942" transform="translate(23,21)"/>
<path d="M0 0 C0.495 3.465 0.495 3.465 1 7 C-1.31 7 -3.62 7 -6 7 C-6.33 7.99 -6.66 8.98 -7 10 C-7.66 10 -8.32 10 -9 10 C-9 9.34 -9 8.68 -9 8 C-9.66 8 -10.32 8 -11 8 C-11 8.99 -11 9.98 -11 11 C-11.99 11 -12.98 11 -14 11 C-14 9.68 -14 8.36 -14 7 C-14.66 7 -15.32 7 -16 7 C-15.67 8.65 -15.34 10.3 -15 12 C-17.43757413 12.02698422 -19.87484915 12.04683099 -22.3125 12.0625 C-23.00279297 12.07087891 -23.69308594 12.07925781 -24.40429688 12.08789062 C-27.5483025 12.10307906 -29.99420019 12.00193327 -33 11 C-34.99961564 10.96079185 -37.00049364 10.95556653 -39 11 C-38.125 6.125 -38.125 6.125 -37 5 C-34.18201831 4.97908179 -31.37908194 5.00734427 -28.5625 5.0625 C-18.4595808 5.15486841 -9.10070875 0 0 0 Z " fill="#BB596C" transform="translate(80,90)"/>
<path d="M0 0 C0 1.32 0 2.64 0 4 C-3.3 4 -6.6 4 -10 4 C-8.99163938 5.23267348 -8.99163938 5.23267348 -6.93359375 5.09765625 C-6.10988281 5.08605469 -5.28617188 5.07445312 -4.4375 5.0625 C-3.61121094 5.05347656 -2.78492187 5.04445313 -1.93359375 5.03515625 C-0.97646484 5.01775391 -0.97646484 5.01775391 0 5 C0.33 6.65 0.66 8.3 1 10 C-4.06562383 10.25328119 -8.15758367 9.33583899 -13 8 C-12.67 8.721875 -12.34 9.44375 -12 10.1875 C-10.99396471 13.01697427 -10.83022598 15.02895466 -11 18 C-17.8165735 19.7879537 -23.96517526 20.23668569 -31 20 C-28.38058783 18.25372522 -26.96175123 17.61277612 -24 17 C-24.66 16.34 -25.32 15.68 -26 15 C-25 14 -25 14 -21.9375 13.9375 C-20.4834375 13.9684375 -20.4834375 13.9684375 -19 14 C-19 11.36 -19 8.72 -19 6 C-16.36 6.33 -13.72 6.66 -11 7 C-11 5.35 -11 3.7 -11 2 C-7.12315913 0.80712589 -4.08378077 0 0 0 Z " fill="#D1A4AB" transform="translate(91,48)"/>
<path d="M0 0 C3.3 0.99 6.6 1.98 10 3 C7.8515625 10.71484375 7.8515625 10.71484375 7 13 C6.34 13.33 5.68 13.66 5 14 C5 12.68 5 11.36 5 10 C2.02076997 9.97272322 -0.95820379 9.95302872 -3.9375 9.9375 C-4.76830078 9.92912109 -5.59910156 9.92074219 -6.45507812 9.91210938 C-10.64373032 9.89581112 -14.82437959 9.9666737 -19.00390625 10.25390625 C-20.0858728 10.32266968 -20.0858728 10.32266968 -21.18969727 10.39282227 C-23.2130765 10.85549119 -23.2130765 10.85549119 -24.24975586 13.04663086 C-24.49733643 13.69124268 -24.74491699 14.33585449 -25 15 C-24.67 12.36 -24.34 9.72 -24 7 C-24.66 6.67 -25.32 6.34 -26 6 C-25.02160156 6.01740234 -25.02160156 6.01740234 -24.0234375 6.03515625 C-18.48989701 6.09557226 -18.48989701 6.09557226 -13 5.5 C-8.66913015 4.77818836 -4.38028197 4.92208985 0 5 C0 3.35 0 1.7 0 0 Z " fill="#9D0C28" transform="translate(81,62)"/>
<path d="M0 0 C0.99 0 1.98 0 3 0 C3.33 2.31 3.66 4.62 4 7 C4.78246094 6.91621094 5.56492187 6.83242188 6.37109375 6.74609375 C7.38300781 6.64425781 8.39492187 6.54242188 9.4375 6.4375 C10.95150391 6.28087891 10.95150391 6.28087891 12.49609375 6.12109375 C13.32238281 6.08113281 14.14867188 6.04117188 15 6 C17.09378992 8.09378992 16.18514428 12.49160032 16.1875 15.375 C16.19974609 16.15617187 16.21199219 16.93734375 16.22460938 17.7421875 C16.23471426 21.67635523 16.22938367 23.65592449 14 27 C14 26.34 14 25.68 14 25 C12.700625 24.855625 11.40125 24.71125 10.0625 24.5625 C6.125 24.125 6.125 24.125 5 23 C4.67 24.32 4.34 25.64 4 27 C2.02 27 0.04 27 -2 27 C-2 26.67 -2 26.34 -2 26 C-0.35 26 1.3 26 3 26 C2.34 22.7 1.68 19.4 1 16 C6.06562383 15.74671881 10.15758367 16.66416101 15 18 C14.67 16.68 14.34 15.36 14 14 C10.7 14 7.4 14 4 14 C4 13.34 4 12.68 4 12 C7.3 12 10.6 12 14 12 C14 10.68 14 9.36 14 8 C10.37 8.66 6.74 9.32 3 10 C2.01 6.7 1.02 3.4 0 0 Z " fill="#C26B7B" transform="translate(77,40)"/>
<path d="M0 0 C1.2984082 0.08507812 1.2984082 0.08507812 2.62304688 0.171875 C4.7286545 0.3114733 6.83322396 0.46659061 8.9375 0.625 C9.2675 2.275 9.5975 3.925 9.9375 5.625 C6.56309993 7.87460005 5.66352612 7.8317046 1.75390625 7.63671875 C0.74392578 7.58966797 -0.26605469 7.54261719 -1.30664062 7.49414062 C-2.36044922 7.43419922 -3.41425781 7.37425781 -4.5 7.3125 C-5.54994141 7.26416016 -6.59988281 7.21582031 -7.68164062 7.16601562 C-16.15712176 6.73927056 -16.15712176 6.73927056 -20.0625 5.625 C-19.7325 4.305 -19.4025 2.985 -19.0625 1.625 C-12.51596697 -0.20189342 -6.75308741 -0.52390127 0 0 Z " fill="#B84E63" transform="translate(77.0625,71.375)"/>
<path d="M0 0 C0.66 1.98 1.32 3.96 2 6 C1.01 6.33 0.02 6.66 -1 7 C-1.33 7.99 -1.66 8.98 -2 10 C-2.66 10 -3.32 10 -4 10 C-3.67 10.99 -3.34 11.98 -3 13 C-3.66 13.66 -4.32 14.32 -5 15 C-5 14.34 -5 13.68 -5 13 C-5.66 13 -6.32 13 -7 13 C-7 13.99 -7 14.98 -7 16 C-12.75 15.125 -12.75 15.125 -15 14 C-15 13.01 -15 12.02 -15 11 C-13.35 11 -11.7 11 -10 11 C-10.66 10.67 -11.32 10.34 -12 10 C-10.66234568 3.55493827 -10.66234568 3.55493827 -7.6875 1.0625 C-4.89110811 -0.04305028 -2.9756394 -0.25505481 0 0 Z " fill="#C8818F" transform="translate(43,25)"/>
<path d="M0 0 C2.46278801 2.46278801 2.99771255 4.70676982 4 8 C4.66 8 5.32 8 6 8 C6 10.64 6 13.28 6 16 C0.88634986 14.9318153 -4.07227969 13.76892524 -9 12 C-8.67 9.03 -8.34 6.06 -8 3 C-7.34 3 -6.68 3 -6 3 C-6 3.66 -6 4.32 -6 5 C-4.68 4.67 -3.36 4.34 -2 4 C-2.66 3.34 -3.32 2.68 -4 2 C-2.68 1.34 -1.36 0.68 0 0 Z " fill="#F8F6F6" transform="translate(51,50)"/>
<path d="M0 0 C3.26244587 3.05854301 5.94224878 6.22997831 8.625 9.8125 C16.60625668 19.81885166 26.05684007 24.37346384 38 28 C38 28.33 38 28.66 38 29 C31.79029227 29.33266291 27.71735105 28.45029331 22 26 C22 25.34 22 24.68 22 24 C21.071875 23.71125 20.14375 23.4225 19.1875 23.125 C16 22 16 22 13 20 C13 19.34 13 18.68 13 18 C12.38125 17.7525 11.7625 17.505 11.125 17.25 C8.61289704 15.77229238 8.23892656 14.56044823 7 12 C6.01 11.67 5.02 11.34 4 11 C2.83203125 9.00390625 2.83203125 9.00390625 1.8125 6.5625 C1.46832031 5.75941406 1.12414062 4.95632812 0.76953125 4.12890625 C0 2 0 2 0 0 Z " fill="#C57383" transform="translate(9,77)"/>
<path d="M0 0 C4.875 3.75 4.875 3.75 6 6 C7.97888961 6.72693904 9.97954558 7.39816251 12 8 C12.33 9.65 12.66 11.3 13 13 C12.01 13.495 12.01 13.495 11 14 C10.67 14.99 10.34 15.98 10 17 C9.01 17 8.02 17 7 17 C7 16.01 7 15.02 7 14 C6.01 13.67 5.02 13.34 4 13 C4.33 12.01 4.66 11.02 5 10 C3.68 10.33 2.36 10.66 1 11 C1 9.68 1 8.36 1 7 C-0.65 7 -2.3 7 -4 7 C-4 5.35 -4 3.7 -4 2 C-2.68 1.34 -1.36 0.68 0 0 Z " fill="#C06577" transform="translate(21,77)"/>
<path d="M0 0 C1.65 0.33 3.3 0.66 5 1 C5 1.66 5 2.32 5 3 C5.66 3 6.32 3 7 3 C7 3.99 7 4.98 7 6 C7.99 6 8.98 6 10 6 C10 6.99 10 7.98 10 9 C10.66 9 11.32 9 12 9 C15 15.625 15 15.625 15 19 C13.02 19.33 11.04 19.66 9 20 C9.33 19.34 9.66 18.68 10 18 C10.66 18 11.32 18 12 18 C12 17.01 12 16.02 12 15 C10.35 15.33 8.7 15.66 7 16 C7.33 15.01 7.66 14.02 8 13 C8.66 13 9.32 13 10 13 C10 12.34 10 11.68 10 11 C9.01 11 8.02 11 7 11 C7 11.66 7 12.32 7 13 C3.55147146 11.85049049 2.6430576 11.19963849 1 8 C1.8125 4.75 1.8125 4.75 3 2 C1.02 2.99 1.02 2.99 -1 4 C-0.67 2.68 -0.34 1.36 0 0 Z " fill="#BA5367" transform="translate(86,21)"/>
<path d="M0 0 C5.16064403 0.01770375 10.10706672 0.38986311 15.21484375 1.1328125 C15.21484375 3.1128125 15.21484375 5.0928125 15.21484375 7.1328125 C13.61077047 7.15989817 12.00656525 7.17924733 10.40234375 7.1953125 C9.06236328 7.21271484 9.06236328 7.21271484 7.6953125 7.23046875 C5.21484375 7.1328125 5.21484375 7.1328125 2.21484375 6.1328125 C0.21522811 6.09360435 -1.78564989 6.08837903 -3.78515625 6.1328125 C-2.72072634 0.20241728 -2.72072634 0.20241728 0 0 Z " fill="#B95065" transform="translate(44.78515625,94.8671875)"/>
<path d="M0 0 C1.98 0.66 3.96 1.32 6 2 C5.38722388 4.96175123 4.74627478 6.38058783 3 9 C1.35 8.67 -0.3 8.34 -2 8 C-1.2575 8.6496875 -1.2575 8.6496875 -0.5 9.3125 C1 11 1 11 1 14 C0.34 14 -0.32 14 -1 14 C-1.33 15.65 -1.66 17.3 -2 19 C-3.32 19 -4.64 19 -6 19 C-7.25 17 -7.25 17 -8 14 C-7.04305226 11.10740797 -5.71655258 8.51604282 -4 6 C-3.34 5.67 -2.68 5.34 -2 5 C-1.27840576 3.35636866 -0.60648579 1.68949614 0 0 Z " fill="#B74B5F" transform="translate(94,69)"/>
<path d="M0 0 C0.33 1.98 0.66 3.96 1 6 C-8.41002278 10.22323462 -8.41002278 10.22323462 -13 12 C-14.5625 10.1875 -14.5625 10.1875 -16 8 C-14.59241902 3.77725706 -12.16792713 3.03568317 -8.3671875 1.0078125 C-5.45798289 -0.23075976 -3.12603337 -0.40077351 0 0 Z " fill="#B5465B" transform="translate(43,12)"/>
<path d="M0 0 C1.32 0 2.64 0 4 0 C4.33 2.31 4.66 4.62 5 7 C5.66 7 6.32 7 7 7 C7.98120464 10.05263664 7.98120464 11.94736336 7 15 C4.36 15 1.72 15 -1 15 C-1.91147322 10.03753471 -1.99130954 5.95654768 -1 1 C-0.67 0.67 -0.34 0.34 0 0 Z " fill="#DDB3BB" transform="translate(98,42)"/>
<path d="M0 0 C0.33 2.64 0.66 5.28 1 8 C-6 10 -6 10 -13 12 C-13 9.36 -13 6.72 -13 4 C-3.7826087 0 -3.7826087 0 0 0 Z " fill="#F9F8F8" transform="translate(71,54)"/>
<path d="M0 0 C1.02222656 -0.00515625 2.04445313 -0.0103125 3.09765625 -0.015625 C5.8984578 0.24634818 7.55340904 0.80925438 9.9375 2.25 C8.9475 3.735 8.9475 3.735 7.9375 5.25 C7.77050768 8.37521833 7.77050768 8.37521833 7.9375 11.25 C9.2575 11.91 10.5775 12.57 11.9375 13.25 C9.9575 13.25 7.9775 13.25 5.9375 13.25 C5.9375 10.94 5.9375 8.63 5.9375 6.25 C5.23882812 6.18941406 4.54015625 6.12882812 3.8203125 6.06640625 C2.91023438 5.98261719 2.00015625 5.89882813 1.0625 5.8125 C0.15757813 5.73128906 -0.74734375 5.65007813 -1.6796875 5.56640625 C-4.0625 5.25 -4.0625 5.25 -6.0625 4.25 C-6.0625 4.91 -6.0625 5.57 -6.0625 6.25 C-7.3825 6.25 -8.7025 6.25 -10.0625 6.25 C-10.3925 4.93 -10.7225 3.61 -11.0625 2.25 C-7.23810545 0.47514286 -4.20589266 -0.02126874 0 0 Z " fill="#E7DADB" transform="translate(58.0625,29.75)"/>
<path d="M0 0 C2.97 0.33 5.94 0.66 9 1 C9 1.99 9 2.98 9 4 C8.01 4 7.02 4 6 4 C6 5.32 6 6.64 6 8 C3.29120665 9.35439668 0.99066732 9.06501451 -2 9 C-2.33 10.98 -2.66 12.96 -3 15 C-5.3125 14.9375 -5.3125 14.9375 -8 14 C-9.8125 10.4375 -9.8125 10.4375 -11 7 C-10.01 7 -9.02 7 -8 7 C-8 8.32 -8 9.64 -8 11 C-6.68 11.33 -5.36 11.66 -4 12 C-4.0825 11.2575 -4.165 10.515 -4.25 9.75 C-3.92678485 6.1946333 -2.53739414 5.37880701 0 3 C0 2.01 0 1.02 0 0 Z " fill="#921F31" transform="translate(62,42)"/>
<path d="M0 0 C0 2.31 0 4.62 0 7 C-7.92 7.495 -7.92 7.495 -16 8 C-16.33 7.34 -16.66 6.68 -17 6 C-16.0625 3.375 -16.0625 3.375 -15 1 C-12.8750734 0.83240016 -10.75005624 0.66594799 -8.625 0.5 C-7.44164062 0.4071875 -6.25828125 0.314375 -5.0390625 0.21875 C-3.36213157 0.09804546 -1.68126944 0 0 0 Z " fill="#B95266" transform="translate(44,71)"/>
<path d="M0 0 C0.76183594 -0.01417969 1.52367187 -0.02835938 2.30859375 -0.04296875 C4.80388272 0.21218212 6.35365548 1.0486363 8.5625 2.1875 C11.21741264 1.87143897 13.17455246 1.38147377 15.5625 0.1875 C17.56210012 0.147508 19.56297242 0.14403201 21.5625 0.1875 C21.2325 0.8475 20.9025 1.5075 20.5625 2.1875 C18.5 2.8125 18.5 2.8125 16.5625 3.1875 C17.2225 3.8475 17.8825 4.5075 18.5625 5.1875 C8.34701249 5.39180975 -1.39476488 5.3929634 -11.4375 3.1875 C-7.56651065 1.18526413 -4.38042937 0.03693448 0 0 Z " fill="#BD7E87" transform="translate(46.4375,63.8125)"/>
<path d="M0 0 C0.33 0 0.66 0 1 0 C1.33 1.65 1.66 3.3 2 5 C2.33 5 2.66 5 3 5 C3.12117187 6.0621875 3.24234375 7.124375 3.3671875 8.21875 C4.32002441 17.06660894 4.32002441 17.06660894 6.1875 25.75 C6.98794645 28.95178578 6.92221289 29.99136219 6 33 C0.28558721 22.35936929 -1.88195632 13.19474213 -1 1 C-0.67 0.67 -0.34 0.34 0 0 Z " fill="#DAA7B1" transform="translate(3,48)"/>
<path d="M0 0 C3.63 0 7.26 0 11 0 C10.34 2.31 9.68 4.62 9 7 C4.05 7.33 -0.9 7.66 -6 8 C-6 6.02 -6 4.04 -6 2 C-5.01 2 -4.02 2 -3 2 C-2.67 2.99 -2.34 3.98 -2 5 C-1.34 3.35 -0.68 1.7 0 0 Z " fill="#C46E7F" transform="translate(51,9)"/>
<path d="M0 0 C0.33 0.66 0.66 1.32 1 2 C-3.70484713 3.84964349 -7.93525723 4.30678989 -12.9375 4.25 C-13.61490234 4.25773437 -14.29230469 4.26546875 -14.99023438 4.2734375 C-19.71954982 4.25530014 -23.5580545 3.45941364 -28 2 C-28 1.67 -28 1.34 -28 1 C-23.18513275 -0.16664135 -18.36531194 -0.36978963 -13.4375 -0.625 C-12.16229492 -0.70234375 -12.16229492 -0.70234375 -10.86132812 -0.78125 C-10.03955078 -0.82507813 -9.21777344 -0.86890625 -8.37109375 -0.9140625 C-7.62786865 -0.9548291 -6.88464355 -0.9955957 -6.11889648 -1.03759766 C-3.89297822 -0.99810101 -2.10023545 -0.73991103 0 0 Z " fill="#D296A1" transform="translate(70,105)"/>
<path d="M0 0 C2.6015625 0.0234375 2.6015625 0.0234375 5.625 0.375 C6.62789062 0.48585938 7.63078125 0.59671875 8.6640625 0.7109375 C9.82035156 0.85402344 9.82035156 0.85402344 11 1 C10.67 3.97 10.34 6.94 10 10 C7.69 10 5.38 10 3 10 C3 9.01 3 8.02 3 7 C2.34 7 1.68 7 1 7 C1 5.68 1 4.36 1 3 C0.01 3.33 -0.98 3.66 -2 4 C-2 2 -2 2 0 0 Z " fill="#A11731" transform="translate(43,68)"/>
<path d="M0 0 C0.33 0.66 0.66 1.32 1 2 C1.66 2 2.32 2 3 2 C5.02316783 7.85359231 5.27311532 13.08569692 5.1875 19.25 C5.18685547 20.1471875 5.18621094 21.044375 5.18554688 21.96875 C5.14103084 28.57690747 5.14103084 28.57690747 4 32 C3.34 32 2.68 32 2 32 C1.67 32.99 1.34 33.98 1 35 C1.165 33.783125 1.33 32.56625 1.5 31.3125 C2.42942708 22.75907686 2.74490652 14.25066874 0.4375 5.90234375 C0 4 0 4 0 0 Z " fill="#B4445A" transform="translate(105,37)"/>
<path d="M0 0 C1.32 0 2.64 0 4 0 C4 0.66 4 1.32 4 2 C4.66 2 5.32 2 6 2 C6 2.99 6 3.98 6 5 C5.01 5.495 5.01 5.495 4 6 C4.33 6.33 4.66 6.66 5 7 C5.04080783 8.99958364 5.04254356 11.00045254 5 13 C2.69 13 0.38 13 -2 13 C-2.125 10.125 -2.125 10.125 -2 7 C-1.34 6.34 -0.68 5.68 0 5 C-0.40929986 2.94603274 -0.40929986 2.94603274 -1 1 C-0.67 0.67 -0.34 0.34 0 0 Z " fill="#AD3048" transform="translate(11,43)"/>
<path d="M0 0 C9.32370752 2.14358135 18.48138551 4.60210838 24 13 C21 13 21 13 18 12 C17.67 11.34 17.34 10.68 17 10 C15.02 10 13.04 10 11 10 C11.33 8.68 11.66 7.36 12 6 C7.545 5.01 7.545 5.01 3 4 C2.67 5.32 2.34 6.64 2 8 C1.814375 6.824375 1.814375 6.824375 1.625 5.625 C1.20882007 2.85942178 1.20882007 2.85942178 -1 1 C-0.67 0.67 -0.34 0.34 0 0 Z " fill="#ECD6DA" transform="translate(68,8)"/>
<path d="M0 0 C1.5 1.375 1.5 1.375 3 3 C3 3.66 3 4.32 3 5 C3.66 5 4.32 5 5 5 C6.91847864 7.87771795 8.50079488 10.88626628 10 14 C7.8125 14.375 7.8125 14.375 5 14 C3.00977164 12.16038352 1.61010101 10.20813852 0 8 C-0.763125 8.20625 -1.52625 8.4125 -2.3125 8.625 C-5 9 -5 9 -8 7 C-7.05125 6.773125 -6.1025 6.54625 -5.125 6.3125 C-1.80676612 5.30916286 -1.80676612 5.30916286 -0.625 2.375 C-0.41875 1.59125 -0.2125 0.8075 0 0 Z " fill="#EEDFE2" transform="translate(22,70)"/>
<path d="M0 0 C9.41002278 -0.3690205 9.41002278 -0.3690205 14 2 C13.01 2.495 13.01 2.495 12 3 C12 4.65 12 6.3 12 8 C11.67 8 11.34 8 11 8 C11 6.35 11 4.7 11 3 C9.39566191 3.47859241 7.79153584 3.95789558 6.1875 4.4375 C4.84751953 4.83775391 4.84751953 4.83775391 3.48046875 5.24609375 C1.64526945 5.80387873 -0.18033726 6.39344575 -2 7 C-1.67 9.97 -1.34 12.94 -1 16 C-2.32 15.67 -3.64 15.34 -5 15 C-4.34 15 -3.68 15 -3 15 C-3 12.36 -3 9.72 -3 7 C-3.66 7 -4.32 7 -5 7 C-4.67 6.34 -4.34 5.68 -4 5 C-3.01 5.33 -2.02 5.66 -1 6 C-0.67 4.02 -0.34 2.04 0 0 Z " fill="#ECDCDE" transform="translate(60,51)"/>
<path d="M0 0 C4.76820125 0.39389489 7.89507144 1.84353572 11.875 4.4375 C12.84179688 5.05496094 13.80859375 5.67242188 14.8046875 6.30859375 C15.89136719 7.14583984 15.89136719 7.14583984 17 8 C17 8.66 17 9.32 17 10 C17.99 10.33 18.98 10.66 20 11 C20.6875 13.0625 20.6875 13.0625 21 15 C17.30002027 15 16.85760962 14.23244436 14.25 11.75 C10.68298848 8.49772479 7.2382905 6.28215642 3 4 C1.64612711 3.02798869 0.30144802 2.04115841 -1 1 C-0.67 0.67 -0.34 0.34 0 0 Z " fill="#C77787" transform="translate(76,8)"/>
<path d="M0 0 C0.99 0 1.98 0 3 0 C3.33 0.66 3.66 1.32 4 2 C4.99 2.33 5.98 2.66 7 3 C7 3.99 7 4.98 7 6 C5.68 6.33 4.36 6.66 3 7 C2.67 8.32 2.34 9.64 2 11 C0.3125 11.75 0.3125 11.75 -2 12 C-4.75 10.0625 -4.75 10.0625 -7 8 C-6.01 7.01 -5.02 6.02 -4 5 C-2.02 5.66 -0.04 6.32 2 7 C1.67 6.401875 1.34 5.80375 1 5.1875 C0 3 0 3 0 0 Z " fill="#C67685" transform="translate(23,21)"/>
<path d="M0 0 C0.66 1.32 1.32 2.64 2 4 C1.34 4.66 0.68 5.32 0 6 C-0.99 7.485 -0.99 7.485 -2 9 C-5.125 9.6875 -5.125 9.6875 -8 10 C-8.33 8.02 -8.66 6.04 -9 4 C-3.375 2 -3.375 2 0 2 C0 1.34 0 0.68 0 0 Z " fill="#B74C61" transform="translate(22,67)"/>
<path d="M0 0 C0.33 0.66 0.66 1.32 1 2 C1.66 2 2.32 2 3 2 C3 2.99 3 3.98 3 5 C3.66 5 4.32 5 5 5 C5.22142255 6.95689659 5.4267568 8.91561952 5.625 10.875 C5.74101563 11.96554688 5.85703125 13.05609375 5.9765625 14.1796875 C5.98429687 15.11039063 5.99203125 16.04109375 6 17 C5.34 17.66 4.68 18.32 4 19 C2.13809956 16.20714934 1.58202158 14.79886258 0.9375 11.625 C0.77507812 10.83222656 0.61265625 10.03945313 0.4453125 9.22265625 C0.29835938 8.48917969 0.15140625 7.75570312 0 7 C-0.226875 6.030625 -0.45375 5.06125 -0.6875 4.0625 C-1 2 -1 2 0 0 Z " fill="#F2EEEE" transform="translate(91,37)"/>
<path d="M0 0 C0.99 0.33 1.98 0.66 3 1 C3 1.99 3 2.98 3 4 C3.99 4 4.98 4 6 4 C6 4.99 6 5.98 6 7 C3.69 7.66 1.38 8.32 -1 9 C-1 8.01 -1 7.02 -1 6 C-2.32 5.67 -3.64 5.34 -5 5 C-3.35 3.35 -1.7 1.7 0 0 Z " fill="#D49CA7" transform="translate(81,34)"/>
<path d="M0 0 C0.33 1.65 0.66 3.3 1 5 C-3.75 9 -3.75 9 -6 9 C-7.6875 7.1875 -7.6875 7.1875 -9 5 C-8.67 4.01 -8.34 3.02 -8 2 C-5.27366306 0.89786379 -2.95855967 0 0 0 Z " fill="#B44259" transform="translate(36,15)"/>
<path d="M0 0 C0.66 0 1.32 0 2 0 C2 1.32 2 2.64 2 4 C2.99 4 3.98 4 5 4 C5 3.01 5 2.02 5 1 C5.66 1 6.32 1 7 1 C7 1.66 7 2.32 7 3 C7.99 2.01 8.98 1.02 10 0 C10.99 0.33 11.98 0.66 13 1 C12.34 1 11.68 1 11 1 C10.67 2.65 10.34 4.3 10 6 C3.76817361 7.03863773 -1.74692761 6.83288874 -8 6 C-8 5.67 -8 5.34 -8 5 C-5.03 5 -2.06 5 1 5 C0.67 3.35 0.34 1.7 0 0 Z " fill="#EBD8DC" transform="translate(64,97)"/>
<path d="M0 0 C0 0.99 0 1.98 0 3 C-6.24161903 6.58125682 -10.75420281 8.67090715 -18 8 C-17.01 7.67 -16.02 7.34 -15 7 C-15 6.34 -15 5.68 -15 5 C-13.84371094 4.58427734 -13.84371094 4.58427734 -12.6640625 4.16015625 C-11.66117187 3.79792969 -10.65828125 3.43570313 -9.625 3.0625 C-8.62726563 2.70285156 -7.62953125 2.34320313 -6.6015625 1.97265625 C-1.3253012 0 -1.3253012 0 0 0 Z " fill="#C67584" transform="translate(85,98)"/>
<path d="M0 0 C3.3 0.66 6.6 1.32 10 2 C9.01 2.495 9.01 2.495 8 3 C7.566875 3.99 7.566875 3.99 7.125 5 C6 7 6 7 3.875 7.75 C2.946875 7.87375 2.946875 7.87375 2 8 C2 7.34 2 6.68 2 6 C1.01 6 0.02 6 -1 6 C-0.67 4.02 -0.34 2.04 0 0 Z " fill="#DEB5BD" transform="translate(69,25)"/>
<path d="M0 0 C-0.32493615 3.5742977 -0.63870686 5.55712453 -2.9375 8.375 C-5 10 -5 10 -7 10 C-7.99 10.66 -8.98 11.32 -10 12 C-9.67 10.35 -9.34 8.7 -9 7 C-8.34 7 -7.68 7 -7 7 C-7 5.68 -7 4.36 -7 3 C-2.92857143 0 -2.92857143 0 0 0 Z " fill="#EDDDE0" transform="translate(102,76)"/>
<path d="M0 0 C4.76058041 5.52841596 4.76058041 5.52841596 5 9 C4.34 9.66 3.68 10.32 3 11 C3 10.34 3 9.68 3 9 C2.34 9 1.68 9 1 9 C1 9.99 1 10.98 1 12 C-4.75 11.125 -4.75 11.125 -7 10 C-7 9.01 -7 8.02 -7 7 C-0.375 6.875 -0.375 6.875 3 8 C1.68 6.02 0.36 4.04 -1 2 C-0.67 1.34 -0.34 0.68 0 0 Z " fill="#D0919D" transform="translate(35,29)"/>
<path d="M0 0 C-0.33 1.32 -0.66 2.64 -1 4 C-4.3 4.66 -7.6 5.32 -11 6 C-11 4.35 -11 2.7 -11 1 C-7.26562152 0.12132271 -3.83225427 -0.08912219 0 0 Z " fill="#EEDEE0" transform="translate(33,56)"/>
<path d="M0 0 C0 1.98 0 3.96 0 6 C-2.31 6.33 -4.62 6.66 -7 7 C-7.66 5.02 -8.32 3.04 -9 1 C-5.92677456 0.08941469 -3.19902639 -0.08886184 0 0 Z " fill="#E0BCC2" transform="translate(53,23)"/>
<path d="M0 0 C0 0.66 0 1.32 0 2 C-0.74765625 2.39832031 -1.4953125 2.79664063 -2.265625 3.20703125 C-3.25046875 3.73683594 -4.2353125 4.26664063 -5.25 4.8125 C-6.22453125 5.33457031 -7.1990625 5.85664063 -8.203125 6.39453125 C-10.63355412 7.78965188 -12.80787699 9.26195961 -15 11 C-15.66 10.67 -16.32 10.34 -17 10 C-13.55384615 5.2 -13.55384615 5.2 -10.75 4.1875 C-9.88375 4.0946875 -9.88375 4.0946875 -9 4 C-9 3.34 -9 2.68 -9 2 C-5.62902617 0.50178941 -3.79557881 0 0 0 Z " fill="#C16779" transform="translate(38,8)"/>
<path d="M0 0 C5.61 0.33 11.22 0.66 17 1 C17 1.66 17 2.32 17 3 C12.40456709 5.29771645 5.82752346 4.24581251 1 3 C0.67 2.01 0.34 1.02 0 0 Z " fill="#F2EAEC" transform="translate(46,92)"/>
<path d="M0 0 C0.33 0 0.66 0 1 0 C1 4.29 1 8.58 1 13 C0.34 13 -0.32 13 -1 13 C-1.99 14.485 -1.99 14.485 -3 16 C-3.12375 15.360625 -3.2475 14.72125 -3.375 14.0625 C-3.58125 13.381875 -3.7875 12.70125 -4 12 C-4.66 11.67 -5.32 11.34 -6 11 C-6 10.34 -6 9.68 -6 9 C-6.66 8.67 -7.32 8.34 -8 8 C-5.69 8 -3.38 8 -1 8 C-1.020625 6.865625 -1.04125 5.73125 -1.0625 4.5625 C-1 1 -1 1 0 0 Z " fill="#F7F8F8" transform="translate(106,49)"/>
<path d="M0 0 C0.99 0 1.98 0 3 0 C3.33 2.31 3.66 4.62 4 7 C4.78246094 6.91621094 5.56492187 6.83242188 6.37109375 6.74609375 C7.38300781 6.64425781 8.39492187 6.54242188 9.4375 6.4375 C10.95150391 6.28087891 10.95150391 6.28087891 12.49609375 6.12109375 C13.32238281 6.08113281 14.14867188 6.04117188 15 6 C16 7 16 7 16.0625 9.5625 C16.041875 10.366875 16.02125 11.17125 16 12 C15.34 12 14.68 12 14 12 C14 10.68 14 9.36 14 8 C10.37 8.66 6.74 9.32 3 10 C2.01 6.7 1.02 3.4 0 0 Z " fill="#C97D8B" transform="translate(77,40)"/>
<path d="M0 0 C0.33 0.66 0.66 1.32 1 2 C3.01669827 3.13350534 3.01669827 3.13350534 5 4 C4.34 4.66 3.68 5.32 3 6 C2.60235737 7.98821313 2.26224651 9.98944339 2 12 C4.31 12 6.62 12 9 12 C9 12.33 9 12.66 9 13 C6.36 13 3.72 13 1 13 C0.67 15.31 0.34 17.62 0 20 C-0.33 20 -0.66 20 -1 20 C-1.02689449 17.04160645 -1.04678741 14.08345573 -1.0625 11.125 C-1.07087891 10.28324219 -1.07925781 9.44148438 -1.08789062 8.57421875 C-1.09111328 7.76855469 -1.09433594 6.96289062 -1.09765625 6.1328125 C-1.10289307 5.38918457 -1.10812988 4.64555664 -1.11352539 3.87939453 C-1 2 -1 2 0 0 Z " fill="#E9D1D5" transform="translate(7,44)"/>
<path d="M0 0 C-0.33 0.66 -0.66 1.32 -1 2 C-2.32 2 -3.64 2 -5 2 C-4.34 3.98 -3.68 5.96 -3 8 C-1.35 7.67 0.3 7.34 2 7 C-1.02295271 10.25548753 -4.20462309 12.68977058 -8 15 C-8.66 15 -9.32 15 -10 15 C-10 14.34 -10 13.68 -10 13 C-8.37373596 11.61767557 -6.7074998 10.28062485 -5 9 C-5.33 7.02 -5.66 5.04 -6 3 C-6.99 2.67 -7.98 2.34 -9 2 C-5.86501708 0.14223235 -3.62528568 -0.20140476 0 0 Z " fill="#C16778" transform="translate(49,22)"/>
<path d="M0 0 C1.32 0 2.64 0 4 0 C4.33 0.99 4.66 1.98 5 3 C5.99 3 6.98 3 8 3 C8 3.99 8 4.98 8 6 C8.66 6.33 9.32 6.66 10 7 C9.67 7.99 9.34 8.98 9 10 C9 9.34 9 8.68 9 8 C6.83333333 8.83333333 6.83333333 8.83333333 6 11 C4.02 8.69 2.04 6.38 0 4 C0.66 4 1.32 4 2 4 C2 3.01 2 2.02 2 1 C1.34 0.67 0.68 0.34 0 0 Z " fill="#E7CFD4" transform="translate(18,84)"/>
<path d="M0 0 C0 0.66 0 1.32 0 2 C-0.99 2.495 -0.99 2.495 -2 3 C-3.13350534 5.01669827 -3.13350534 5.01669827 -4 7 C-4 5.68 -4 4.36 -4 3 C-4.66 3 -5.32 3 -6 3 C-5.67 4.65 -5.34 6.3 -5 8 C-6.65 8 -8.3 8 -10 8 C-10.04254356 6.00045254 -10.04080783 3.99958364 -10 2 C-7.75858472 -0.24141528 -3.06492894 0 0 0 Z " fill="#C26A7B" transform="translate(70,94)"/>
<path d="M0 0 C0 1.98 0 3.96 0 6 C-3.63 6 -7.26 6 -11 6 C-10.67 4.68 -10.34 3.36 -10 2 C-8.52112267 1.66538533 -7.04188942 1.33234333 -5.5625 1 C-4.32693359 0.7215625 -4.32693359 0.7215625 -3.06640625 0.4375 C-1 0 -1 0 0 0 Z " fill="#CE8996" transform="translate(68,71)"/>
<path d="M0 0 C0.99 0 1.98 0 3 0 C3 2 3 2 1.5 3.625 C1.005 4.07875 0.51 4.5325 0 5 C1.65 4.67 3.3 4.34 5 4 C5 4.99 5 5.98 5 7 C4.01 7.495 4.01 7.495 3 8 C4.65 8 6.3 8 8 8 C7.525625 8.391875 7.05125 8.78375 6.5625 9.1875 C4.64820367 11.40808374 4.38733012 13.13375709 4 16 C3.67 16 3.34 16 3 16 C3 14.02 3 12.04 3 10 C2.34 10 1.68 10 1 10 C1 9.01 1 8.02 1 7 C0.34 7 -0.32 7 -1 7 C-1 5.68 -1 4.36 -1 3 C-1.66 3 -2.32 3 -3 3 C-2.67 2.34 -2.34 1.68 -2 1 C-1.34 1.33 -0.68 1.66 0 2 C0 1.34 0 0.68 0 0 Z " fill="#D499A5" transform="translate(93,32)"/>
<path d="M0 0 C0.33 0 0.66 0 1 0 C1 1.65 1 3.3 1 5 C0.01 5.495 0.01 5.495 -1 6 C-1.6496875 7.7325 -1.6496875 7.7325 -2.3125 9.5 C-3.1478125 11.2325 -3.1478125 11.2325 -4 13 C-6.60546875 13.71875 -6.60546875 13.71875 -9 14 C-7.87883864 12.03946649 -6.75294469 10.08163875 -5.625 8.125 C-4.99851562 7.03445312 -4.37203125 5.94390625 -3.7265625 4.8203125 C-2 2 -2 2 0 0 Z " fill="#F0E7E8" transform="translate(91,70)"/>
<path d="M0 0 C1.43861294 0.08746284 2.87597508 0.19565348 4.3125 0.3125 C5.11300781 0.37050781 5.91351563 0.42851563 6.73828125 0.48828125 C9.36272334 1.08206694 10.30820672 1.95780294 12 4 C11.37351562 4.02578125 10.74703125 4.0515625 10.1015625 4.078125 C9.28429687 4.13484375 8.46703125 4.1915625 7.625 4.25 C6.81289063 4.29640625 6.00078125 4.3428125 5.1640625 4.390625 C2.81161073 4.7922092 2.81161073 4.7922092 1.7109375 7.046875 C1.47632813 7.69140625 1.24171875 8.3359375 1 9 C1.33 6.36 1.66 3.72 2 1 C1.34 0.67 0.68 0.34 0 0 Z " fill="#A42039" transform="translate(55,68)"/>
<path d="M0 0 C2.97 0 5.94 0 9 0 C9.33 1.65 9.66 3.3 10 5 C6.05272412 5.17942163 3.4019487 5.09350689 0 3 C0 2.01 0 1.02 0 0 Z " fill="#E8D0D5" transform="translate(82,53)"/>
<path d="M0 0 C5.61 0 11.22 0 17 0 C17 0.66 17 1.32 17 2 C18.98 2 20.96 2 23 2 C19.77208445 4.1519437 18.71599191 4.20086443 15 4 C15 3.34 15 2.68 15 2 C14.00419922 2.01740234 14.00419922 2.01740234 12.98828125 2.03515625 C4.21792619 2.12478032 4.21792619 2.12478032 0 1 C0 0.67 0 0.34 0 0 Z " fill="#D9A8B2" transform="translate(48,91)"/>
<path d="M0 0 C0 0.99 0 1.98 0 3 C-3.90028225 5.60018816 -7.47434569 5.15085514 -12 5 C-11.67 4.01 -11.34 3.02 -11 2 C-7.24092359 0.37676246 -4.07913787 -0.23994929 0 0 Z " fill="#ECDCDF" transform="translate(77,88)"/>
<path d="M0 0 C0.33 0.99 0.66 1.98 1 3 C2.65 3 4.3 3 6 3 C6.33 3.66 6.66 4.32 7 5 C-2.41002278 7.29612756 -2.41002278 7.29612756 -7 7 C-6.67 5.68 -6.34 4.36 -6 3 C-4.02 3 -2.04 3 0 3 C0 2.01 0 1.02 0 0 Z " fill="#E3CCD0" transform="translate(41,59)"/>
<path d="M0 0 C0.99 0 1.98 0 3 0 C3 1.32 3 2.64 3 4 C4.32 4.33 5.64 4.66 7 5 C7 3.35 7 1.7 7 0 C9.64 0.33 12.28 0.66 15 1 C15 1.33 15 1.66 15 2 C13.02 2 11.04 2 9 2 C8.67 3.98 8.34 5.96 8 8 C5.6875 7.9375 5.6875 7.9375 3 7 C1.1875 3.4375 1.1875 3.4375 0 0 Z " fill="#B55A6B" transform="translate(51,49)"/>
<path d="M0 0 C0 0.33 0 0.66 0 1 C-6.43311296 1.09507063 -12.65758005 1.15316726 -19 0 C-11.74033031 -3.75500157 -7.68616635 -2.26063716 0 0 Z " fill="#D0A3AB" transform="translate(54,67)"/>
<path d="M0 0 C2.97 0.33 5.94 0.66 9 1 C9.33 2.65 9.66 4.3 10 6 C5.545 5.01 5.545 5.01 1 4 C0.67 2.68 0.34 1.36 0 0 Z " fill="#EDDFE2" transform="translate(81,58)"/>
<path d="M0 0 C0.66 0 1.32 0 2 0 C2.33 0.66 2.66 1.32 3 2 C3.99 2.33 4.98 2.66 6 3 C6 3.66 6 4.32 6 5 C4.35 4.67 2.7 4.34 1 4 C0.34 6.97 -0.32 9.94 -1 13 C-1.66 13 -2.32 13 -3 13 C-2.88557539 11.39504433 -2.75805306 9.79101881 -2.625 8.1875 C-2.55539062 7.29417969 -2.48578125 6.40085937 -2.4140625 5.48046875 C-2 3 -2 3 0 0 Z " fill="#EFDEE2" transform="translate(11,33)"/>
<path d="M0 0 C0.33 0.99 0.66 1.98 1 3 C0.01 4.485 0.01 4.485 -1 6 C-0.01 6.33 0.98 6.66 2 7 C0 8 0 8 -4 8 C-4.99 9.98 -5.98 11.96 -7 14 C-7.66 14 -8.32 14 -9 14 C-7.64002446 7.95566426 -4.14348206 4.36505864 0 0 Z " fill="#C87C8B" transform="translate(32,29)"/>
<path d="M0 0 C0.66 0 1.32 0 2 0 C2 0.66 2 1.32 2 2 C2.99 1.67 3.98 1.34 5 1 C5 2.32 5 3.64 5 5 C1.7 5.66 -1.6 6.32 -5 7 C-5 5.02 -5 3.04 -5 1 C-4.01 1 -3.02 1 -2 1 C-1.67 1.99 -1.34 2.98 -1 4 C-0.67 2.68 -0.34 1.36 0 0 Z " fill="#AC2F47" transform="translate(50,10)"/>
<path d="M0 0 C6.73848545 -0.49914707 12.0098644 0.80059034 18 4 C18.33 4.66 18.66 5.32 19 6 C12.84765625 5.4140625 12.84765625 5.4140625 11 5 C10.67 4.34 10.34 3.68 10 3 C8.11235097 2.31527335 8.11235097 2.31527335 5.9375 1.875 C5.20402344 1.70742188 4.47054687 1.53984375 3.71484375 1.3671875 C3.14894531 1.24601562 2.58304688 1.12484375 2 1 C2 3.31 2 5.62 2 8 C1.34 7.67 0.68 7.34 0 7 C0 4.69 0 2.38 0 0 Z " fill="#BC5D6F" transform="translate(57,21)"/>
<path d="M0 0 C2.475 0.495 2.475 0.495 5 1 C5.12375 1.969375 5.2475 2.93875 5.375 3.9375 C5.58125 4.948125 5.7875 5.95875 6 7 C6.66 7.33 7.32 7.66 8 8 C8 8.99 8 9.98 8 11 C3.78926767 9.49616703 2.16762883 6.79335044 0 3 C0 2.01 0 1.02 0 0 Z " fill="#F2E9EB" transform="translate(12,77)"/>
<path d="M0 0 C6.75 0.875 6.75 0.875 9 2 C8.34 2.66 7.68 3.32 7 4 C7.99 4.66 8.98 5.32 10 6 C7.69 6 5.38 6 3 6 C3 5.34 3 4.68 3 4 C2.34 4 1.68 4 1 4 C0.67 4.99 0.34 5.98 0 7 C0 6.34 0 5.68 0 5 C-0.66 4.67 -1.32 4.34 -2 4 C-1.34 2.68 -0.68 1.36 0 0 Z " fill="#D6ACB3" transform="translate(42,49)"/>
<path d="M0 0 C3.3 0 6.6 0 10 0 C10.33 0.99 10.66 1.98 11 3 C7.37 3.33 3.74 3.66 0 4 C0 2.68 0 1.36 0 0 Z " fill="#F0E6E8" transform="translate(22,51)"/>
<path d="M0 0 C1.2065625 0.0309375 1.2065625 0.0309375 2.4375 0.0625 C2.1075 2.0425 1.7775 4.0225 1.4375 6.0625 C-0.5425 6.0625 -2.5225 6.0625 -4.5625 6.0625 C-3.48963568 0.08511307 -3.48963568 0.08511307 0 0 Z " fill="#AF374E" transform="translate(45.5625,94.9375)"/>
<path d="M0 0 C1.32 0.33 2.64 0.66 4 1 C3.34 1 2.68 1 2 1 C1.34 4.63 0.68 8.26 0 12 C-0.99 12 -1.98 12 -3 12 C-2.67 11.34 -2.34 10.68 -2 10 C-2.66 10 -3.32 10 -4 10 C-4 9.01 -4 8.02 -4 7 C-3.01 7 -2.02 7 -1 7 C-0.67 4.69 -0.34 2.38 0 0 Z " fill="#A85D66" transform="translate(47,36)"/>
<path d="M0 0 C0.33 0.99 0.66 1.98 1 3 C2.65 2.34 4.3 1.68 6 1 C6.33 1.66 6.66 2.32 7 3 C8.32 2.67 9.64 2.34 11 2 C11.33 2.99 11.66 3.98 12 5 C7.6835078 5.76173392 4.25566547 6.16063604 0 5 C0 3.35 0 1.7 0 0 Z " fill="#CC8391" transform="translate(70,72)"/>
<path d="M0 0 C0.33 0.66 0.66 1.32 1 2 C1.66 2 2.32 2 3 2 C4.19287411 5.87684087 5 8.91621923 5 13 C4.01 13 3.02 13 2 13 C1.66127487 11.58461283 1.32925376 10.16762037 1 8.75 C0.814375 7.96109375 0.62875 7.1721875 0.4375 6.359375 C0 4 0 4 0 0 Z " fill="#BD6273" transform="translate(105,37)"/>
<path d="M0 0 C0.66 0 1.32 0 2 0 C1.34 6.93 0.68 13.86 0 21 C-0.33 21 -0.66 21 -1 21 C-1.02888146 17.68751813 -1.04675799 14.37506833 -1.0625 11.0625 C-1.07087891 10.11697266 -1.07925781 9.17144531 -1.08789062 8.19726562 C-1.09111328 7.29814453 -1.09433594 6.39902344 -1.09765625 5.47265625 C-1.10289307 4.64000244 -1.10812988 3.80734863 -1.11352539 2.94946289 C-1 1 -1 1 0 0 Z " fill="#BC5A6D" transform="translate(5,42)"/>
<path d="M0 0 C1.32 0 2.64 0 4 0 C4.625 2.375 4.625 2.375 5 5 C4.34 5.66 3.68 6.32 3 7 C0.875 6.625 0.875 6.625 -1 6 C-1.042721 4.33388095 -1.04063832 2.66617115 -1 1 C-0.67 0.67 -0.34 0.34 0 0 Z " fill="#AE354D" transform="translate(98,42)"/>
<path d="M0 0 C1.4606285 2.64738916 2 3.89448334 2 7 C0.02 7.33 -1.96 7.66 -4 8 C-3.67 7.34 -3.34 6.68 -3 6 C-2.34 6 -1.68 6 -1 6 C-1 5.01 -1 4.02 -1 3 C-2.65 3.33 -4.3 3.66 -6 4 C-5.67 3.01 -5.34 2.02 -5 1 C-3 0 -3 0 0 0 Z " fill="#AB2B43" transform="translate(99,33)"/>
<path d="M0 0 C3.60271909 0.97370786 4.79777091 1.6899154 6.875 4.875 C8.04541473 8.12615202 7.98612444 8.87952402 7 12 C5.82767315 10.3790787 4.6622923 8.75313167 3.5 7.125 C2.8503125 6.22007813 2.200625 5.31515625 1.53125 4.3828125 C0 2 0 2 0 0 Z " fill="#C06375" transform="translate(97,24)"/>
<path d="M0 0 C4.95 0 9.9 0 15 0 C15 0.33 15 0.66 15 1 C13.02 1 11.04 1 9 1 C9 2.98 9 4.96 9 7 C8.34 7 7.68 7 7 7 C7 5.02 7 3.04 7 1 C6.01 1 5.02 1 4 1 C4 1.66 4 2.32 4 3 C2.35 2.67 0.7 2.34 -1 2 C-0.67 1.34 -0.34 0.68 0 0 Z " fill="#DBB2BA" transform="translate(48,20)"/>
<path d="M0 0 C2.31 0 4.62 0 7 0 C7 2 7 4 7 6 C5.02 6 3.04 6 1 6 C0.67 4.02 0.34 2.04 0 0 Z " fill="#B13B52" transform="translate(97,50)"/>
<path d="M0 0 C2.97 0 5.94 0 9 0 C9.33 1.65 9.66 3.3 10 5 C6.7169902 6.6415049 3.57454967 5.51888624 0 5 C0 4.67 0 4.34 0 4 C1.98 4 3.96 4 6 4 C5.67 3.34 5.34 2.68 5 2 C3.35 2.33 1.7 2.66 0 3 C0 2.01 0 1.02 0 0 Z " fill="#BF6173" transform="translate(76,73)"/>
<path d="M0 0 C3.69806223 0.50428121 7.34514648 1.24753016 11 2 C10.67 2.66 10.34 3.32 10 4 C7.03 3.505 7.03 3.505 4 3 C4 3.66 4 4.32 4 5 C2.68 5 1.36 5 0 5 C-0.5625 3.0625 -0.5625 3.0625 -1 1 C-0.67 0.67 -0.34 0.34 0 0 Z " fill="#DAC5C7" transform="translate(48,31)"/>
<path d="M0 0 C0.99 0 1.98 0 3 0 C3 2.31 3 4.62 3 7 C0.03 6.505 0.03 6.505 -3 6 C-1.125 1.125 -1.125 1.125 0 0 Z " fill="#CA7E8D" transform="translate(50,71)"/>
<path d="M0 0 C0.99 0.99 1.98 1.98 3 3 C2.01 3.495 2.01 3.495 1 4 C1.33 4.99 1.66 5.98 2 7 C1.01 8.485 1.01 8.485 0 10 C0 9.01 0 8.02 0 7 C-0.99 7 -1.98 7 -3 7 C-3 6.01 -3 5.02 -3 4 C-3.66 4 -4.32 4 -5 4 C-5 3.01 -5 2.02 -5 1 C-2.525 1.99 -2.525 1.99 0 3 C0 2.01 0 1.02 0 0 Z " fill="#E7CBD1" transform="translate(96,20)"/>
<path d="M0 0 C0 1.32 0 2.64 0 4 C-2.97 4 -5.94 4 -9 4 C-9 3.01 -9 2.02 -9 1 C-5.846632 0.29925156 -3.27275026 0 0 0 Z " fill="#ECDADD" transform="translate(91,48)"/>
<path d="M0 0 C0.66 0.66 1.32 1.32 2 2 C3.98356483 2.71408334 5.98315437 3.38617742 8 4 C8 4.66 8 5.32 8 6 C6.00045254 6.04254356 3.99958364 6.04080783 2 6 C1.67 5.67 1.34 5.34 1 5 C-1.32817964 4.63239269 -3.6618385 4.29758419 -6 4 C-6 3.67 -6 3.34 -6 3 C-4.02 3 -2.04 3 0 3 C0 2.01 0 1.02 0 0 Z " fill="#E7D3D5" transform="translate(72,59)"/>
<path d="M0 0 C1.40742022 2.81484045 0.66652164 4.56936113 0.0625 7.625 C-0.13214844 8.62789062 -0.32679687 9.63078125 -0.52734375 10.6640625 C-0.68332031 11.43492188 -0.83929688 12.20578125 -1 13 C-1.33 12.34 -1.66 11.68 -2 11 C-2.66 11 -3.32 11 -4 11 C-3.48964169 6.6109185 -2.47785723 3.66291938 0 0 Z " fill="#CB8391" transform="translate(9,31)"/>
<path d="M0 0 C3.41021743 0.78697325 6.68885166 1.87119943 10 3 C9.01 4.485 9.01 4.485 8 6 C3.545 5.01 3.545 5.01 -1 4 C-0.67 2.68 -0.34 1.36 0 0 Z " fill="#D395A1" transform="translate(67,4)"/>
<path d="M0 0 C0.66 1.32 1.32 2.64 2 4 C-0.93828597 6.50298434 -3.17902761 7.46930939 -7 8 C-6.67 6.68 -6.34 5.36 -6 4 C-4.02 3.67 -2.04 3.34 0 3 C0 2.01 0 1.02 0 0 Z " fill="#F0E6E7" transform="translate(81,94)"/>
<path d="M0 0 C1.35015859 4.05047576 0.62084998 6.7920168 0 11 C0.66 11 1.32 11 2 11 C1.67 12.65 1.34 14.3 1 16 C0.01 15.34 -0.98 14.68 -2 14 C-1.67 12.68 -1.34 11.36 -1 10 C-1.99 9.67 -2.98 9.34 -4 9 C-3.01 9 -2.02 9 -1 9 C-1.33 6.36 -1.66 3.72 -2 1 C-1.34 0.67 -0.68 0.34 0 0 Z " fill="#B25262" transform="translate(34,45)"/>
<path d="M0 0 C0.66 0.33 1.32 0.66 2 1 C2 1.66 2 2.32 2 3 C3.32 3.66 4.64 4.32 6 5 C5.67 6.32 5.34 7.64 5 9 C4.34 8.67 3.68 8.34 3 8 C3 7.34 3 6.68 3 6 C1.35 6.33 -0.3 6.66 -2 7 C-1.34 4.69 -0.68 2.38 0 0 Z " fill="#CA7D8C" transform="translate(12,37)"/>
<path d="M0 0 C1.65 0.33 3.3 0.66 5 1 C5.6875 2.8125 5.6875 2.8125 6 5 C4.6875 6.75 4.6875 6.75 3 8 C2.34 8 1.68 8 1 8 C1.66 6.02 2.32 4.04 3 2 C1.02 2.99 1.02 2.99 -1 4 C-0.67 2.68 -0.34 1.36 0 0 Z " fill="#AB2C43" transform="translate(86,21)"/>
<path d="M0 0 C0.66 0.33 1.32 0.66 2 1 C2 1.66 2 2.32 2 3 C2.99 3.33 3.98 3.66 5 4 C4.01 4.33 3.02 4.66 2 5 C2.33 5.33 2.66 5.66 3 6 C3.66 6 4.32 6 5 6 C4.625 7.9375 4.625 7.9375 4 10 C3.01 10.495 3.01 10.495 2 11 C1.34 10.67 0.68 10.34 0 10 C-1.11421833 6.35346727 -0.94296589 3.66708957 0 0 Z " fill="#CC8391" transform="translate(84,17)"/>
<path d="M0 0 C5.03985731 0.44469329 7.37634988 2.71343362 11 6 C10.34 6.66 9.68 7.32 9 8 C5.83884224 6.63016497 5.0072908 6.0109362 3 3 C2.01 2.67 1.02 2.34 0 2 C0 1.34 0 0.68 0 0 Z " fill="#F2E5E8" transform="translate(81,14)"/>
<path d="M0 0 C5.94 0.66 11.88 1.32 18 2 C18 2.33 18 2.66 18 3 C12.06 3 6.12 3 0 3 C0 2.01 0 1.02 0 0 Z " fill="#F7F6F7" transform="translate(48,101)"/>
<path d="M0 0 C0 1.32 0 2.64 0 4 C-2.64 4 -5.28 4 -8 4 C-8 3.01 -8 2.02 -8 1 C-5.10765685 0.17361624 -3.11257569 0 0 0 Z " fill="#EDDEE1" transform="translate(89,43)"/>
<path d="M0 0 C1.32 0 2.64 0 4 0 C3.34 1.98 2.68 3.96 2 6 C0.35 5.67 -1.3 5.34 -3 5 C-3.33 4.01 -3.66 3.02 -4 2 C-2.68 2 -1.36 2 0 2 C0 1.34 0 0.68 0 0 Z " fill="#B84E62" transform="translate(17,36)"/>
<path d="M0 0 C0.99 0.66 1.98 1.32 3 2 C3 2.99 3 3.98 3 5 C-0.01031744 5.93423645 -0.86650268 6.04449911 -4 5 C-4 4.01 -4 3.02 -4 2 C-2.68 1.34 -1.36 0.68 0 0 Z " fill="#AD3149" transform="translate(21,77)"/>
<path d="M0 0 C0.99 0.33 1.98 0.66 3 1 C0.03 5.95 0.03 5.95 -3 11 C-4.3968009 6.80959731 -2.86445675 4.87233324 -1 1 C-0.67 0.67 -0.34 0.34 0 0 Z " fill="#BE6072" transform="translate(13,25)"/>
<path d="M0 0 C0.99 0 1.98 0 3 0 C3 2.31 3 4.62 3 7 C1.35 7 -0.3 7 -2 7 C-1.34 4.69 -0.68 2.38 0 0 Z " fill="#B34459" transform="translate(66,10)"/>
<path d="M0 0 C0 0.66 0 1.32 0 2 C0.99 2.33 1.98 2.66 3 3 C-3.27 2.67 -9.54 2.34 -16 2 C-16 1.67 -16 1.34 -16 1 C-13.89594609 0.83191581 -11.79175242 0.66558052 -9.6875 0.5 C-8.51574219 0.4071875 -7.34398437 0.314375 -6.13671875 0.21875 C-4.094806 0.07635011 -2.0468721 0 0 0 Z " fill="#B84B5F" transform="translate(67,4)"/>
<path d="M0 0 C0 0.99 0 1.98 0 3 C-2.25 4.8125 -2.25 4.8125 -5 6 C-7.3125 5.1875 -7.3125 5.1875 -9 4 C-2.25 0 -2.25 0 0 0 Z " fill="#C06476" transform="translate(85,98)"/>
<path d="M0 0 C-0.66 1.32 -1.32 2.64 -2 4 C-3.98 4 -5.96 4 -8 4 C-8 3.01 -8 2.02 -8 1 C-5.07175348 0.02391783 -3.04386724 -0.08226668 0 0 Z " fill="#A8253E" transform="translate(58,97)"/>
<path d="M0 0 C3.3 0.33 6.6 0.66 10 1 C10 1.66 10 2.32 10 3 C6.7 3 3.4 3 0 3 C0 2.01 0 1.02 0 0 Z " fill="#F2EBEC" transform="translate(23,46)"/>
<path d="M0 0 C0.33 1.65 0.66 3.3 1 5 C-0.98 5.99 -0.98 5.99 -3 7 C-3.66 5.02 -4.32 3.04 -5 1 C-2 0 -2 0 0 0 Z " fill="#A51E37" transform="translate(36,15)"/>
<path d="M0 0 C0.66 0 1.32 0 2 0 C2.33 1.98 2.66 3.96 3 6 C2.34 6 1.68 6 1 6 C1 5.34 1 4.68 1 4 C0.34 4 -0.32 4 -1 4 C-1 4.99 -1 5.98 -1 7 C-1.66 7 -2.32 7 -3 7 C-2.67 5.35 -2.34 3.7 -2 2 C-1.34 2 -0.68 2 0 2 C0 1.34 0 0.68 0 0 Z " fill="#B13D53" transform="translate(70,94)"/>
<path d="M0 0 C2.64752004 2.57784846 4.94432065 4.91648098 7 8 C6.67 8.99 6.34 9.98 6 11 C5.67 10.01 5.34 9.02 5 8 C4.01 7.67 3.02 7.34 2 7 C0.8125 3.4375 0.8125 3.4375 0 0 Z " fill="#BA5569" transform="translate(9,77)"/>
<path d="M0 0 C-0.375 2.9375 -0.375 2.9375 -1 6 C-1.99 6.495 -1.99 6.495 -3 7 C-4.32 5.68 -5.64 4.36 -7 3 C-2.25 0 -2.25 0 0 0 Z " fill="#F3EDEE" transform="translate(102,76)"/>
<path d="M0 0 C3 2 3 2 3.51171875 4.1640625 C3.56972656 4.97617188 3.62773437 5.78828125 3.6875 6.625 C3.75324219 7.44226563 3.81898437 8.25953125 3.88671875 9.1015625 C3.92410156 9.72804688 3.96148437 10.35453125 4 11 C2.29159719 9.36587557 1.06546953 8.13093906 0 6 C-0.039992 4.00039988 -0.04346799 1.99952758 0 0 Z " fill="#C67686" transform="translate(6,70)"/>
<path d="M0 0 C2.64 0.33 5.28 0.66 8 1 C8 1.99 8 2.98 8 4 C5.36 3.67 2.72 3.34 0 3 C0 2.01 0 1.02 0 0 Z " fill="#F1E6E8" transform="translate(26,41)"/>
<path d="M0 0 C1.32 0 2.64 0 4 0 C4.625 1.875 4.625 1.875 5 4 C4.34 4.66 3.68 5.32 3 6 C2.01 6 1.02 6 0 6 C0 4.02 0 2.04 0 0 Z " fill="#AA2941" transform="translate(80,17)"/>
<path d="M0 0 C2.64 0.33 5.28 0.66 8 1 C8 1.66 8 2.32 8 3 C7.34 3 6.68 3 6 3 C6 3.99 6 4.98 6 6 C5.01 5.67 4.02 5.34 3 5 C3.33 4.01 3.66 3.02 4 2 C2.68 2.33 1.36 2.66 0 3 C0 2.01 0 1.02 0 0 Z " fill="#AD3047" transform="translate(22,85)"/>
<path d="M0 0 C-0.33 0.66 -0.66 1.32 -1 2 C-3.0625 2.625 -3.0625 2.625 -5 3 C-4.34 3.66 -3.68 4.32 -3 5 C-4.98 5 -6.96 5 -9 5 C-8.625 3.0625 -8.625 3.0625 -8 1 C-5.29120665 -0.35439668 -2.99066732 -0.06501451 0 0 Z " fill="#C28590" transform="translate(68,64)"/>
<path d="M0 0 C0.99 0 1.98 0 3 0 C3.84098656 4.01804691 4.05404945 7.01803543 3 11 C1.02 11 -0.96 11 -3 11 C-3 10.67 -3 10.34 -3 10 C-1.35 10 0.3 10 2 10 C1.34 6.7 0.68 3.4 0 0 Z " fill="#AD5E69" transform="translate(78,56)"/>
<path d="M0 0 C3.37462715 0.54723683 5.08235 1.0549 8 3 C8 3.66 8 4.32 8 5 C2.25 4.125 2.25 4.125 0 3 C0 2.01 0 1.02 0 0 Z " fill="#EFE1E5" transform="translate(28,36)"/>
<path d="M0 0 C2.64 1.65 5.28 3.3 8 5 C4 6 4 6 1.8125 5.25 C0 4 0 4 -1 1 C-0.67 0.67 -0.34 0.34 0 0 Z " fill="#BE6173" transform="translate(25,95)"/>
<path d="M0 0 C1.36125 0.37125 1.36125 0.37125 2.75 0.75 C0.19931155 3.10448165 -0.96017358 3.73327924 -4.5 3.9375 C-5.4075 3.875625 -6.315 3.81375 -7.25 3.75 C-4.05 -0.31153846 -4.05 -0.31153846 0 0 Z " fill="#982235" transform="translate(50.25,47.25)"/>
<path d="M0 0 C1.7074998 1.28062485 3.37373596 2.61767557 5 4 C5 4.66 5 5.32 5 6 C0.25 5.125 0.25 5.125 -2 4 C-1.34 2.68 -0.68 1.36 0 0 Z " fill="#F0E4E7" transform="translate(33,31)"/>
<path d="M0 0 C2.875 0.25 2.875 0.25 6 1 C6.66 2.32 7.32 3.64 8 5 C5.03 4.01 2.06 3.02 -1 2 C-0.67 1.34 -0.34 0.68 0 0 Z " fill="#C06577" transform="translate(76,8)"/>
<path d="M0 0 C2.97 0.495 2.97 0.495 6 1 C5.67 1.66 5.34 2.32 5 3 C4.01 3 3.02 3 2 3 C1.67 3.99 1.34 4.98 1 6 C0.34 5.67 -0.32 5.34 -1 5 C-0.67 3.35 -0.34 1.7 0 0 Z " fill="#D194A0" transform="translate(48,95)"/>
<path d="M0 0 C0.66 0 1.32 0 2 0 C2 1.98 2 3.96 2 6 C0.0625 5.6875 0.0625 5.6875 -2 5 C-2.33 4.01 -2.66 3.02 -3 2 C-2.01 2 -1.02 2 0 2 C0 1.34 0 0.68 0 0 Z " fill="#CA808F" transform="translate(42,71)"/>
<path d="M0 0 C2.31 0 4.62 0 7 0 C7 0.99 7 1.98 7 3 C4.69 3 2.38 3 0 3 C0 2.01 0 1.02 0 0 Z " fill="#AB2B43" transform="translate(9,53)"/>
<path d="M0 0 C0.99 0 1.98 0 3 0 C3.1953125 2.05078125 3.390625 4.1015625 3.5859375 6.15234375 C3.72257812 6.76207031 3.85921875 7.37179688 4 8 C4.66 8.33 5.32 8.66 6 9 C5.01 9.33 4.02 9.66 3 10 C2.01 6.7 1.02 3.4 0 0 Z " fill="#C2707F" transform="translate(77,40)"/>
<path d="M0 0 C4.455 0.99 4.455 0.99 9 2 C8.34 2.66 7.68 3.32 7 4 C4.8359375 3.9765625 4.8359375 3.9765625 2.375 3.625 C1.55773437 3.51414063 0.74046875 3.40328125 -0.1015625 3.2890625 C-0.72804688 3.19367187 -1.35453125 3.09828125 -2 3 C-1.34 2.67 -0.68 2.34 0 2 C0 1.34 0 0.68 0 0 Z " fill="#CC8795" transform="translate(25,43)"/>
<path d="M0 0 C0.99 0.33 1.98 0.66 3 1 C2.67 1.99 2.34 2.98 2 4 C-0.5625 5.1875 -0.5625 5.1875 -3 6 C-2.42655063 3.13275314 -2.1385485 2.1385485 0 0 Z " fill="#ECDCDF" transform="translate(78,30)"/>
<path d="M0 0 C0.66 0 1.32 0 2 0 C5.11450382 4.15267176 5.11450382 4.15267176 4.6875 7.3125 C4.460625 7.869375 4.23375 8.42625 4 9 C4 8.34 4 7.68 4 7 C3.34 7 2.68 7 2 7 C0.5393715 4.35261084 0 3.10551666 0 0 Z " fill="#F2E6E9" transform="translate(97,27)"/>
<path d="M0 0 C1.98 0 3.96 0 6 0 C5.67 1.32 5.34 2.64 5 4 C3.35 4 1.7 4 0 4 C0 2.68 0 1.36 0 0 Z " fill="#CC8593" transform="translate(32,73)"/>
<path d="M0 0 C2.31 0 4.62 0 7 0 C6.01 0.66 5.02 1.32 4 2 C3.67 2.99 3.34 3.98 3 5 C2.01 5 1.02 5 0 5 C0 3.35 0 1.7 0 0 Z " fill="#F4EEEE" transform="translate(22,57)"/>
<path d="M0 0 C0.66 0 1.32 0 2 0 C2.33 1.98 2.66 3.96 3 6 C2.01 6 1.02 6 0 6 C-0.66 4.68 -1.32 3.36 -2 2 C-1.34 1.34 -0.68 0.68 0 0 Z " fill="#B03850" transform="translate(88,81)"/>
<path d="M0 0 C0.33 1.32 0.66 2.64 1 4 C-1.3125 5.125 -1.3125 5.125 -4 6 C-4.99 5.34 -5.98 4.68 -7 4 C-6.030625 3.71125 -5.06125 3.4225 -4.0625 3.125 C-0.89335797 2.35785318 -0.89335797 2.35785318 0 0 Z " fill="#E0B6BF" transform="translate(21,73)"/>
<path d="M0 0 C2.22189824 2.22189824 2.92598892 4.08482708 4 7 C3.01 7 2.02 7 1 7 C1 6.01 1 5.02 1 4 C-0.65 3.67 -2.3 3.34 -4 3 C-2.68 2.01 -1.36 1.02 0 0 Z " fill="#F2E8EA" transform="translate(51,50)"/>
<path d="M0 0 C2.31 0 4.62 0 7 0 C7 0.99 7 1.98 7 3 C6.01 3 5.02 3 4 3 C3.67 4.32 3.34 5.64 3 7 C3 5.02 3 3.04 3 1 C2.01 0.67 1.02 0.34 0 0 Z " fill="#9B414D" transform="translate(64,43)"/>
<path d="M0 0 C0.33 0.66 0.66 1.32 1 2 C2.65 1.34 4.3 0.68 6 0 C6 2 6 2 4.5 3.625 C4.005 4.07875 3.51 4.5325 3 5 C-0.875 3.25 -0.875 3.25 -2 1 C-1.34 0.67 -0.68 0.34 0 0 Z " fill="#C47685" transform="translate(74,34)"/>
<path d="M0 0 C1.32 0.33 2.64 0.66 4 1 C4.33 2.65 4.66 4.3 5 6 C4.01 5.67 3.02 5.34 2 5 C0.8125 2.4375 0.8125 2.4375 0 0 Z " fill="#F0E7E8" transform="translate(36,29)"/>
<path d="M0 0 C0.99 0 1.98 0 3 0 C3.33 0.66 3.66 1.32 4 2 C4.99 2.66 5.98 3.32 7 4 C5.1875 4.625 5.1875 4.625 3 5 C2.01 4.34 1.02 3.68 0 3 C0 2.01 0 1.02 0 0 Z " fill="#AD324A" transform="translate(23,21)"/>
<path d="M0 0 C0.33 0.66 0.66 1.32 1 2 C1.99 2.33 2.98 2.66 4 3 C4 3.99 4 4.98 4 6 C2.68 5.67 1.36 5.34 0 5 C0 4.34 0 3.68 0 3 C-0.99 2.67 -1.98 2.34 -3 2 C-2.01 1.34 -1.02 0.68 0 0 Z " fill="#F6F2F2" transform="translate(21,22)"/>
<path d="M0 0 C0.66 0.99 1.32 1.98 2 3 C1.34 3 0.68 3 0 3 C0 3.66 0 4.32 0 5 C-0.66 5 -1.32 5 -2 5 C-2 5.66 -2 6.32 -2 7 C-2.66 6.67 -3.32 6.34 -4 6 C-2.25 1.125 -2.25 1.125 0 0 Z " fill="#C46E7F" transform="translate(92,74)"/>
<path d="M0 0 C1.32 0 2.64 0 4 0 C4 1.32 4 2.64 4 4 C2.35 4 0.7 4 -1 4 C-0.67 2.68 -0.34 1.36 0 0 Z " fill="#C57282" transform="translate(58,73)"/>
<path d="M0 0 C-0.99 0.495 -0.99 0.495 -2 1 C-2 2.65 -2 4.3 -2 6 C-2.33 6 -2.66 6 -3 6 C-3 4.35 -3 2.7 -3 1 C-4.98 1 -6.96 1 -9 1 C-5.64919071 -1.10976881 -3.77897651 -1.0497157 0 0 Z " fill="#E4CDD1" transform="translate(74,53)"/>
<path d="M0 0 C0.99 0.33 1.98 0.66 3 1 C3 1.66 3 2.32 3 3 C1.02 3.66 -0.96 4.32 -3 5 C-3 4.01 -3 3.02 -3 2 C-2.01 1.34 -1.02 0.68 0 0 Z " fill="#F1E9EA" transform="translate(81,34)"/>
<path d="M0 0 C0.99 0 1.98 0 3 0 C2.67 1.98 2.34 3.96 2 6 C1.01 6 0.02 6 -1 6 C-0.67 4.02 -0.34 2.04 0 0 Z " fill="#EDDEE0" transform="translate(69,25)"/>
<path d="M0 0 C1.32 0.33 2.64 0.66 4 1 C4.33 2.32 4.66 3.64 5 5 C4.01 5 3.02 5 2 5 C1.34 3.35 0.68 1.7 0 0 Z " fill="#EFE3E6" transform="translate(40,26)"/>
<path d="M0 0 C0.99 0 1.98 0 3 0 C3 2.64 3 5.28 3 8 C2.34 8 1.68 8 1 8 C0.67 5.36 0.34 2.72 0 0 Z " fill="#C57483" transform="translate(52,21)"/>
<path d="M0 0 C0.99 0 1.98 0 3 0 C3 1.98 3 3.96 3 6 C2.01 6 1.02 6 0 6 C0 4.02 0 2.04 0 0 Z " fill="#EBD5DA" transform="translate(59,22)"/>
<path d="M0 0 C2.31 0.33 4.62 0.66 7 1 C6.401875 1.268125 5.80375 1.53625 5.1875 1.8125 C3.02775192 2.98493467 1.64209744 4.19369282 0 6 C0 4.02 0 2.04 0 0 Z " fill="#CF8E9A" transform="translate(40,93)"/>
<path d="M0 0 C0.33 0.66 0.66 1.32 1 2 C2.65 1.67 4.3 1.34 6 1 C6 1.99 6 2.98 6 4 C3.69 4 1.38 4 -1 4 C-0.67 2.68 -0.34 1.36 0 0 Z " fill="#BA596B" transform="translate(10,49)"/>
<path d="M0 0 C0.66 0 1.32 0 2 0 C1.67 2.64 1.34 5.28 1 8 C0.34 8 -0.32 8 -1 8 C-0.67 5.36 -0.34 2.72 0 0 Z " fill="#F8F5F5" transform="translate(9,38)"/>
<path d="M0 0 C0 0.66 0 1.32 0 2 C-2.31 2.66 -4.62 3.32 -7 4 C-6.67 3.01 -6.34 2.02 -6 1 C-4 0 -4 0 0 0 Z " fill="#F2ECED" transform="translate(87,39)"/>
<path d="M0 0 C2.29013653 3.4352048 2.17842973 4.985331 2 9 C0.68 8.01 -0.64 7.02 -2 6 C-1.34 4.02 -0.68 2.04 0 0 Z " fill="#CC8894" transform="translate(67,24)"/>
<path d="M0 0 C1.32 0 2.64 0 4 0 C4 1.65 4 3.3 4 5 C3.01 5 2.02 5 1 5 C0.67 3.35 0.34 1.7 0 0 Z " fill="#EFE2E5" transform="translate(49,23)"/>
<path d="M0 0 C0.99 0.33 1.98 0.66 3 1 C3 2.65 3 4.3 3 6 C2.01 6 1.02 6 0 6 C0 4.02 0 2.04 0 0 Z " fill="#B03A51" transform="translate(57,10)"/>
<path d="M0 0 C0.66 0 1.32 0 2 0 C2 0.66 2 1.32 2 2 C2.99 1.67 3.98 1.34 5 1 C5 2.32 5 3.64 5 5 C3.68 5.33 2.36 5.66 1 6 C0.67 4.02 0.34 2.04 0 0 Z " fill="#A31732" transform="translate(50,10)"/>
</svg>
